<svg xmlns="http://www.w3.org/2000/svg" version="1.1" xmlns:xlink="http://www.w3.org/1999/xlink" xmlns:svgjs="http://svgjs.dev/svgjs" width="1500" height="1500" viewBox="0 0 1500 1500"><rect width="1500" height="1500" fill="#000000"></rect><g transform="matrix(0.6666666666666666,0,0,0.6666666666666666,249.39393939393938,651.4966234570313)"><svg viewBox="0 0 396 78" data-background-color="#1a3c21" preserveAspectRatio="xMidYMid meet" height="295" width="1500" xmlns="http://www.w3.org/2000/svg" xmlns:xlink="http://www.w3.org/1999/xlink"><g id="tight-bounds" transform="matrix(1,0,0,1,0.2400000000000091,0.06744086619431755)"><svg viewBox="0 0 395.52 77.86511826761138" height="77.86511826761138" width="395.52"><g><svg viewBox="0 0 571.531590475835 112.516117733811" height="77.86511826761138" width="395.52"><g><rect width="4.426072217751788" height="81.82250240411001" x="407.1065764862612" y="15.346807664850495" fill="#ffffff" opacity="1" stroke-width="0" stroke="transparent" fill-opacity="1" class="rect-yte-0" data-fill-palette-color="primary" rx="1%" id="yte-0" data-palette-color="#e2ff8c"></rect></g><g transform="matrix(1,0,0,1,0,15.550346228044795)"><svg viewBox="0 0 395.52 81.41542527772141" height="81.41542527772141" width="395.52"><g id="textblocktransform"><svg viewBox="0 0 395.52 81.41542527772141" height="81.41542527772141" width="395.52" id="textblock"><g><svg viewBox="0 0 395.52 49.07985769947484" height="49.07985769947484" width="395.52"><g transform="matrix(1,0,0,1,0,0)"><svg width="395.52" viewBox="4.35 -36.23 295.13 36.629999999999995" height="49.07985769947484" data-palette-color="#e2ff8c"><g class="wordmark-text-0" data-fill-palette-color="primary" id="text-0"><path d="M4.35-35.83L26.43-35.83 26.43-31.88 9.22-31.88 9.22-19.35 23.93-19.35 23.93-15.4 9.22-15.4 9.22 0 4.35 0 4.35-35.83ZM50.55-16.2L50.55 0 48.57 0Q47.92 0 47.52-0.2 47.12-0.4 47-1.05L47-1.05 46.5-3.4Q45.5-2.5 44.55-1.79 43.6-1.07 42.55-0.59 41.5-0.1 40.31 0.15 39.12 0.4 37.67 0.4L37.67 0.4Q36.2 0.4 34.91-0.01 33.62-0.43 32.67-1.25 31.72-2.08 31.16-3.34 30.6-4.6 30.6-6.33L30.6-6.33Q30.6-7.83 31.42-9.21 32.25-10.6 34.09-11.68 35.92-12.75 38.9-13.44 41.87-14.13 46.17-14.23L46.17-14.23 46.17-16.2Q46.17-19.15 44.91-20.66 43.65-22.18 41.17-22.18L41.17-22.18Q39.55-22.18 38.44-21.76 37.32-21.35 36.51-20.84 35.7-20.33 35.11-19.91 34.52-19.5 33.95-19.5L33.95-19.5Q33.5-19.5 33.16-19.74 32.82-19.98 32.62-20.33L32.62-20.33 31.82-21.75Q33.92-23.78 36.35-24.78 38.77-25.78 41.72-25.78L41.72-25.78Q43.85-25.78 45.5-25.08 47.15-24.38 48.27-23.13 49.4-21.88 49.97-20.1 50.55-18.32 50.55-16.2L50.55-16.2ZM39-2.73L39-2.73Q40.17-2.73 41.15-2.96 42.12-3.2 42.98-3.64 43.85-4.08 44.64-4.7 45.42-5.33 46.17-6.13L46.17-6.13 46.17-11.4Q43.1-11.3 40.95-10.91 38.8-10.53 37.45-9.9 36.1-9.28 35.48-8.43 34.87-7.58 34.87-6.53L34.87-6.53Q34.87-5.53 35.2-4.8 35.52-4.08 36.07-3.61 36.62-3.15 37.37-2.94 38.12-2.73 39-2.73ZM61.75 0L57.3 0 57.3-25.33 59.85-25.33Q60.57-25.33 60.85-25.05 61.12-24.78 61.22-24.1L61.22-24.1 61.52-20.15Q62.82-22.8 64.73-24.29 66.65-25.78 69.22-25.78L69.22-25.78Q70.27-25.78 71.12-25.54 71.97-25.3 72.7-24.88L72.7-24.88 72.12-21.55Q71.95-20.93 71.34-20.93L71.34-20.93Q71-20.93 70.27-21.16 69.55-21.4 68.25-21.4L68.25-21.4Q65.92-21.4 64.36-20.05 62.8-18.7 61.75-16.13L61.75-16.13 61.75 0ZM81.89 0L77.44 0 77.44-25.33 80.09-25.33Q81.04-25.33 81.29-24.4L81.29-24.4 81.62-21.8Q83.02-23.53 84.76-24.63 86.49-25.73 88.79-25.73L88.79-25.73Q91.37-25.73 92.96-24.3 94.54-22.88 95.24-20.45L95.24-20.45Q95.77-21.83 96.63-22.83 97.49-23.83 98.57-24.48 99.64-25.13 100.86-25.43 102.07-25.73 103.32-25.73L103.32-25.73Q105.32-25.73 106.88-25.09 108.44-24.45 109.53-23.23 110.62-22 111.19-20.21 111.77-18.43 111.77-16.13L111.77-16.13 111.77 0 107.32 0 107.32-16.13Q107.32-19.1 106.02-20.64 104.72-22.18 102.24-22.18L102.24-22.18Q101.14-22.18 100.16-21.79 99.17-21.4 98.42-20.65 97.67-19.9 97.23-18.76 96.79-17.63 96.79-16.13L96.79-16.13 96.79 0 92.34 0 92.34-16.13Q92.34-19.18 91.12-20.68 89.89-22.18 87.54-22.18L87.54-22.18Q85.89-22.18 84.48-21.29 83.07-20.4 81.89-18.88L81.89-18.88 81.89 0ZM144.44-7.4L144.44-7.4Q144.84-7.4 145.17-7.08L145.17-7.08 147.06-5Q144.87-2.45 141.73-1.03 138.59 0.4 134.17 0.4L134.17 0.4Q130.29 0.4 127.14-0.94 123.99-2.27 121.77-4.69 119.54-7.1 118.31-10.48 117.09-13.85 117.09-17.9L117.09-17.9Q117.09-21.95 118.4-25.33 119.72-28.7 122.09-31.13 124.47-33.55 127.78-34.89 131.09-36.23 135.09-36.23L135.09-36.23Q139.04-36.23 141.9-35 144.77-33.77 146.99-31.68L146.99-31.68 145.42-29.45Q145.24-29.2 145.02-29.04 144.79-28.88 144.37-28.88L144.37-28.88Q144.04-28.88 143.68-29.11 143.31-29.35 142.81-29.7 142.31-30.05 141.64-30.45 140.97-30.85 140.04-31.2 139.12-31.55 137.89-31.79 136.67-32.02 135.06-32.02L135.06-32.02Q132.19-32.02 129.8-31.04 127.42-30.05 125.69-28.23 123.97-26.4 123-23.78 122.04-21.15 122.04-17.9L122.04-17.9Q122.04-14.55 123-11.93 123.97-9.3 125.63-7.49 127.29-5.68 129.56-4.73 131.84-3.78 134.47-3.78L134.47-3.78Q136.06-3.78 137.34-3.96 138.62-4.15 139.7-4.55 140.79-4.95 141.73-5.56 142.67-6.18 143.62-7.03L143.62-7.03Q144.04-7.4 144.44-7.4ZM162.99-25.73L162.99-25.73Q165.76-25.73 168-24.8 170.24-23.88 171.8-22.18 173.36-20.48 174.2-18.06 175.04-15.65 175.04-12.68L175.04-12.68Q175.04-9.68 174.2-7.28 173.36-4.88 171.8-3.18 170.24-1.48 168-0.56 165.76 0.35 162.99 0.35L162.99 0.35Q160.21 0.35 157.97-0.56 155.74-1.48 154.16-3.18 152.59-4.88 151.74-7.28 150.89-9.68 150.89-12.68L150.89-12.68Q150.89-15.65 151.74-18.06 152.59-20.48 154.16-22.18 155.74-23.88 157.97-24.8 160.21-25.73 162.99-25.73ZM162.99-3.13L162.99-3.13Q166.74-3.13 168.59-5.64 170.44-8.15 170.44-12.65L170.44-12.65Q170.44-17.18 168.59-19.7 166.74-22.23 162.99-22.23L162.99-22.23Q161.09-22.23 159.69-21.58 158.29-20.93 157.35-19.7 156.41-18.48 155.95-16.69 155.49-14.9 155.49-12.65L155.49-12.65Q155.49-10.4 155.95-8.63 156.41-6.85 157.35-5.64 158.29-4.42 159.69-3.78 161.09-3.13 162.99-3.13ZM184.99 0L180.54 0 180.54-25.33 183.19-25.33Q184.14-25.33 184.39-24.4L184.39-24.4 184.74-21.65Q186.39-23.48 188.42-24.6 190.46-25.73 193.14-25.73L193.14-25.73Q195.21-25.73 196.8-25.04 198.39-24.35 199.45-23.09 200.51-21.83 201.06-20.05 201.61-18.28 201.61-16.13L201.61-16.13 201.61 0 197.16 0 197.16-16.13Q197.16-19 195.85-20.59 194.54-22.18 191.84-22.18L191.84-22.18Q189.86-22.18 188.15-21.23 186.44-20.28 184.99-18.65L184.99-18.65 184.99 0ZM212.78 0L208.33 0 208.33-25.33 210.98-25.33Q211.93-25.33 212.18-24.4L212.18-24.4 212.53-21.65Q214.18-23.48 216.22-24.6 218.26-25.73 220.93-25.73L220.93-25.73Q223.01-25.73 224.6-25.04 226.18-24.35 227.25-23.09 228.31-21.83 228.86-20.05 229.41-18.28 229.41-16.13L229.41-16.13 229.41 0 224.96 0 224.96-16.13Q224.96-19 223.65-20.59 222.33-22.18 219.63-22.18L219.63-22.18Q217.66-22.18 215.95-21.23 214.23-20.28 212.78-18.65L212.78-18.65 212.78 0ZM246.16-25.73L246.16-25.73Q248.43-25.73 250.36-24.96 252.28-24.2 253.68-22.76 255.08-21.33 255.87-19.21 256.66-17.1 256.66-14.4L256.66-14.4Q256.66-13.35 256.43-13 256.21-12.65 255.58-12.65L255.58-12.65 238.73-12.65Q238.78-10.25 239.38-8.47 239.98-6.7 241.03-5.51 242.08-4.33 243.53-3.74 244.98-3.15 246.78-3.15L246.78-3.15Q248.46-3.15 249.67-3.54 250.88-3.93 251.76-4.38 252.63-4.83 253.22-5.21 253.81-5.6 254.23-5.6L254.23-5.6Q254.78-5.6 255.08-5.18L255.08-5.18 256.33-3.55Q255.51-2.55 254.36-1.81 253.21-1.07 251.89-0.6 250.58-0.13 249.18 0.11 247.78 0.35 246.41 0.35L246.41 0.35Q243.78 0.35 241.57-0.54 239.36-1.43 237.74-3.14 236.13-4.85 235.23-7.38 234.33-9.9 234.33-13.18L234.33-13.18Q234.33-15.83 235.14-18.13 235.96-20.43 237.48-22.11 239.01-23.8 241.21-24.76 243.41-25.73 246.16-25.73ZM246.26-22.45L246.26-22.45Q243.03-22.45 241.18-20.59 239.33-18.73 238.88-15.43L238.88-15.43 252.66-15.43Q252.66-16.98 252.23-18.26 251.81-19.55 250.98-20.49 250.16-21.43 248.97-21.94 247.78-22.45 246.26-22.45ZM280.78-22.43L279.6-20.83Q279.4-20.55 279.2-20.4 279-20.25 278.63-20.25L278.63-20.25Q278.25-20.25 277.82-20.56 277.38-20.88 276.7-21.25 276.03-21.63 275.07-21.94 274.1-22.25 272.7-22.25L272.7-22.25Q270.85-22.25 269.43-21.59 268-20.93 267.04-19.68 266.08-18.43 265.59-16.65 265.1-14.88 265.1-12.68L265.1-12.68Q265.1-10.38 265.63-8.59 266.15-6.8 267.1-5.59 268.05-4.38 269.42-3.74 270.78-3.1 272.48-3.1L272.48-3.1Q274.1-3.1 275.15-3.49 276.2-3.88 276.9-4.35 277.6-4.83 278.05-5.21 278.5-5.6 278.95-5.6L278.95-5.6Q279.53-5.6 279.8-5.18L279.8-5.18 281.05-3.55Q279.4-1.53 276.93-0.59 274.45 0.35 271.7 0.35L271.7 0.35Q269.33 0.35 267.29-0.53 265.25-1.4 263.75-3.06 262.25-4.73 261.39-7.15 260.53-9.58 260.53-12.68L260.53-12.68Q260.53-15.5 261.32-17.9 262.1-20.3 263.62-22.04 265.13-23.78 267.35-24.75 269.58-25.73 272.45-25.73L272.45-25.73Q275.1-25.73 277.15-24.86 279.2-24 280.78-22.43L280.78-22.43ZM293.35 0.4L293.35 0.4Q290.35 0.4 288.74-1.28 287.13-2.95 287.13-6.1L287.13-6.1 287.13-21.6 284.08-21.6Q283.68-21.6 283.4-21.84 283.13-22.08 283.13-22.58L283.13-22.58 283.13-24.35 287.28-24.88 288.3-32.7Q288.35-33.08 288.63-33.31 288.9-33.55 289.33-33.55L289.33-33.55 291.58-33.55 291.58-24.83 298.83-24.83 298.83-21.6 291.58-21.6 291.58-6.4Q291.58-4.8 292.35-4.03 293.13-3.25 294.35-3.25L294.35-3.25Q295.05-3.25 295.56-3.44 296.08-3.63 296.45-3.85 296.83-4.08 297.09-4.26 297.35-4.45 297.55-4.45L297.55-4.45Q297.9-4.45 298.18-4.03L298.18-4.03 299.48-1.9Q298.33-0.83 296.7-0.21 295.08 0.4 293.35 0.4Z" fill="#ffffff" data-fill-palette-color="primary"></path></g></svg></g></svg></g><g transform="matrix(1,0,0,1,163.310208,60.666434185736065)"><svg viewBox="0 0 232.209792 20.748991091985346" height="20.748991091985346" width="232.209792"><g transform="matrix(1,0,0,1,0,0)"><svg width="232.209792" viewBox="-7.75 -35.55 532.09 47.55" height="20.748991091985346" data-palette-color="#e2ff8c"><path d="M-2.25 12L-2.25 12Q-4.35 12-6.05 11.05-7.75 10.1-7.75 8.35L-7.75 8.35Q-7.75 7.05-6.9 6.35-6.05 5.65-4.9 5.65L-4.9 5.65Q-3.75 5.65-2.78 6.25-1.8 6.85-1.05 8.35L-1.05 8.35-0.55 9.6Q-0.25 10.15 0.15 10.23 0.55 10.3 0.9 9.7L0.9 9.7Q1.15 9.25 1.35 8.68 1.55 8.1 1.85 7.25L1.85 7.25Q2.55 5.55 3.08 3.13 3.6 0.7 4.05-2.25L4.05-2.25Q4.85-7.15 5.6-12.3 6.35-17.45 7.15-23.15L7.15-23.15 3.1-23.15 3.2-23.6 5.15-23.8Q6.35-23.95 6.95-24.6 7.55-25.25 7.9-26.5L7.9-26.5Q9.25-30.85 12.25-33.2 15.25-35.55 19.65-35.55L19.65-35.55Q22.15-35.55 23.7-34.48 25.25-33.4 25.25-31.75L25.25-31.75Q25.25-30.4 24.4-29.6 23.55-28.8 22.35-28.8L22.35-28.8Q20-28.8 18.45-31.95L18.45-31.95 18.25-32.75Q17.8-33.8 17.23-33.77 16.65-33.75 16.25-33L16.25-33Q15.4-31.8 14.7-29.65 14-27.5 13.45-24.05L13.45-24.05 19.55-24.05 19.3-23 13.3-23.05Q12.5-17.75 11.73-12.43 10.95-7.1 10.05-2.2L10.05-2.2Q9.35 1.5 8.22 4.23 7.1 6.95 5.2 8.85L5.2 8.85Q3.65 10.4 1.73 11.2-0.2 12-2.25 12ZM25.1 0L19.1 0.35 18.6 0 22.4-18.3Q22.65-19.6 22.25-20.23 21.85-20.85 20.9-21.25L20.9-21.25 20.15-21.6 20.25-22.1 28.95-24.85 29.45-24.4 28.1-16.15Q29.15-18.55 30.55-20.5 31.95-22.45 33.5-23.63 35.05-24.8 36.6-24.8L36.6-24.8Q38.15-24.8 39.1-23.98 40.05-23.15 40.05-21.8L40.05-21.8Q40.05-20.4 39.22-19.5 38.4-18.6 37-18.6L37-18.6Q35.9-18.6 34.9-19.18 33.9-19.75 32.95-20.85L32.95-20.85Q31.2-19.55 29.95-17.48 28.7-15.4 27.65-12.95L27.65-12.95 27.15-10.65Q26.6-8 26.1-5.35 25.6-2.7 25.1 0L25.1 0ZM48.5 0.75L48.5 0.75Q45.9 0.75 43.75-0.28 41.59-1.3 40.34-3.38 39.09-5.45 39.09-8.65L39.09-8.65Q39.09-11.85 40.17-14.75 41.24-17.65 43.2-19.93 45.15-22.2 47.75-23.5 50.34-24.8 53.39-24.8L53.39-24.8Q56.05-24.8 58.12-23.78 60.2-22.75 61.42-20.7 62.65-18.65 62.65-15.45L62.65-15.45Q62.65-12.3 61.57-9.38 60.5-6.45 58.57-4.17 56.65-1.9 54.07-0.58 51.5 0.75 48.5 0.75ZM49.09-0.25L49.09-0.25Q50.65-0.25 51.92-1.68 53.2-3.1 54.14-5.48 55.09-7.85 55.59-10.73 56.09-13.6 56.09-16.45L56.09-16.45Q56.09-20.6 55.25-22.2 54.39-23.8 53.05-23.8L53.05-23.8Q51.45-23.8 50.09-22.4 48.75-21 47.75-18.65 46.75-16.3 46.2-13.45 45.65-10.6 45.65-7.75L45.65-7.75Q45.65-3.5 46.65-1.88 47.65-0.25 49.09-0.25ZM71.14 0L71.14 0 65.04 0.35 64.64 0 68.49-18.4Q68.94-20.4 67.09-21.15L67.09-21.15 66.19-21.6 66.29-22.1 75.59-24.85 76.04-24.4 74.99-19Q77.54-21.65 80.19-23.23 82.84-24.8 85.14-24.8L85.14-24.8Q86.74-24.8 87.79-23.83 88.84-22.85 88.84-20.8L88.84-20.8Q88.84-20.35 88.79-19.9 88.74-19.45 88.69-18.95L88.69-18.95Q91.19-21.65 93.77-23.23 96.34-24.8 98.69-24.8L98.69-24.8Q100.29-24.8 101.32-23.83 102.34-22.85 102.34-20.8L102.34-20.8Q102.34-19.75 102.14-18.63 101.94-17.5 101.64-16.3L101.64-16.3 99.04-5.6Q98.84-4.8 98.69-4.25 98.54-3.7 98.54-3.3L98.54-3.3Q98.54-2.25 99.39-2.25L99.39-2.25Q100.14-2.25 101.07-2.88 101.99-3.5 103.09-4.6L103.09-4.6 103.59-4.1Q102.89-3 101.74-1.88 100.59-0.75 99.07 0 97.54 0.75 95.64 0.75L95.64 0.75Q93.99 0.75 93.09-0.03 92.19-0.8 92.19-2.2L92.19-2.2Q92.19-3.25 92.44-4.38 92.69-5.5 93.04-6.7L93.04-6.7 95.09-15.15Q95.39-16.45 95.62-17.55 95.84-18.65 95.84-19.35L95.84-19.35Q95.84-21.1 94.24-21.1L94.24-21.1Q91.94-21.1 88.44-17.65L88.44-17.65Q88.39-17.55 88.37-17.43 88.34-17.3 88.34-17.15L88.34-17.15 86.94-10.65Q86.39-8 85.89-5.35 85.39-2.7 84.84 0L84.84 0 78.79 0.35 78.39 0 81.74-15.85Q81.94-16.85 82.09-17.73 82.24-18.6 82.24-19.25L82.24-19.25Q82.24-20.9 80.74-20.9L80.74-20.9Q78.19-20.9 74.74-17.65L74.74-17.65 73.19-10.65Q72.64-8 72.14-5.35 71.64-2.7 71.14 0ZM112.79 12L112.79 12Q110.69 12 108.99 11.05 107.29 10.1 107.29 8.35L107.29 8.35Q107.29 7.05 108.14 6.35 108.99 5.65 110.14 5.65L110.14 5.65Q111.29 5.65 112.26 6.25 113.24 6.85 113.99 8.35L113.99 8.35 114.49 9.6Q114.79 10.15 115.19 10.23 115.59 10.3 115.94 9.7L115.94 9.7Q116.19 9.25 116.39 8.68 116.59 8.1 116.89 7.25L116.89 7.25Q117.59 5.55 118.11 3.13 118.64 0.7 119.09-2.25L119.09-2.25Q119.89-7.15 120.64-12.3 121.39-17.45 122.19-23.15L122.19-23.15 118.14-23.15 118.24-23.6 120.19-23.8Q121.39-23.95 121.99-24.6 122.59-25.25 122.94-26.5L122.94-26.5Q124.29-30.85 127.29-33.2 130.29-35.55 134.69-35.55L134.69-35.55Q137.19-35.55 138.74-34.48 140.29-33.4 140.29-31.75L140.29-31.75Q140.29-30.4 139.44-29.6 138.59-28.8 137.39-28.8L137.39-28.8Q135.04-28.8 133.49-31.95L133.49-31.95 133.29-32.75Q132.84-33.8 132.26-33.77 131.69-33.75 131.29-33L131.29-33Q130.44-31.8 129.74-29.65 129.04-27.5 128.49-24.05L128.49-24.05 134.59-24.05 134.34-23 128.34-23.05Q127.54-17.75 126.76-12.43 125.99-7.1 125.09-2.2L125.09-2.2Q124.39 1.5 123.26 4.23 122.14 6.95 120.24 8.85L120.24 8.85Q118.69 10.4 116.76 11.2 114.84 12 112.79 12ZM137.64 0.75L137.64 0.75Q136.24 0.75 134.99 0.1 133.74-0.55 132.96-2.05 132.19-3.55 132.19-6L132.19-6Q132.19-8.65 133.24-11.33 134.29-14 136.04-16.43 137.79-18.85 139.94-20.73 142.09-22.6 144.39-23.7 146.69-24.8 148.74-24.8L148.74-24.8Q149.74-24.8 150.61-24.43 151.49-24.05 152.29-23.4L152.29-23.4 156.34-24.95 156.74-24.7 152.39-5.55Q152.04-4.15 152.04-3.25L152.04-3.25Q152.04-2.2 152.99-2.2L152.99-2.2Q153.69-2.2 154.61-2.85 155.54-3.5 156.74-4.6L156.74-4.6 157.14-4.2Q156.39-3 155.26-1.88 154.14-0.75 152.76 0 151.39 0.75 149.84 0.75L149.84 0.75Q148.14 0.75 147.09-0.28 146.04-1.3 146.04-3.45L146.04-3.45Q146.04-4.15 146.09-4.8L146.09-4.8Q144.09-2.55 141.86-0.9 139.64 0.75 137.64 0.75ZM138.09-8.25L138.09-8.25Q138.09-5.6 138.96-4.42 139.84-3.25 141.29-3.25L141.29-3.25Q142.49-3.25 143.69-4 144.89-4.75 146.29-6.15L146.29-6.15Q146.39-6.75 146.54-7.4L146.54-7.4 149.69-21.8Q149.04-22.6 148.14-22.9 147.24-23.2 146.54-23.2L146.54-23.2Q144.39-23.2 142.04-20.65L142.04-20.65Q140.19-18.6 139.14-15.25 138.09-11.9 138.09-8.25ZM166.13 0L160.13 0.35 159.63 0 163.43-18.3Q163.68-19.6 163.28-20.23 162.88-20.85 161.93-21.25L161.93-21.25 161.18-21.6 161.28-22.1 169.98-24.85 170.48-24.4 169.13-16.15Q170.18-18.55 171.58-20.5 172.98-22.45 174.53-23.63 176.08-24.8 177.63-24.8L177.63-24.8Q179.18-24.8 180.13-23.98 181.08-23.15 181.08-21.8L181.08-21.8Q181.08-20.4 180.26-19.5 179.43-18.6 178.03-18.6L178.03-18.6Q176.93-18.6 175.93-19.18 174.93-19.75 173.98-20.85L173.98-20.85Q172.23-19.55 170.98-17.48 169.73-15.4 168.68-12.95L168.68-12.95 168.18-10.65Q167.63-8 167.13-5.35 166.63-2.7 166.13 0L166.13 0ZM187.43 0L187.43 0 181.33 0.35 180.93 0 184.78-18.4Q185.23-20.4 183.38-21.15L183.38-21.15 182.48-21.6 182.58-22.1 191.88-24.85 192.33-24.4 191.28-19Q193.83-21.65 196.48-23.23 199.13-24.8 201.43-24.8L201.43-24.8Q203.03-24.8 204.08-23.83 205.13-22.85 205.13-20.8L205.13-20.8Q205.13-20.35 205.08-19.9 205.03-19.45 204.98-18.95L204.98-18.95Q207.48-21.65 210.06-23.23 212.63-24.8 214.98-24.8L214.98-24.8Q216.58-24.8 217.61-23.83 218.63-22.85 218.63-20.8L218.63-20.8Q218.63-19.75 218.43-18.63 218.23-17.5 217.93-16.3L217.93-16.3 215.33-5.6Q215.13-4.8 214.98-4.25 214.83-3.7 214.83-3.3L214.83-3.3Q214.83-2.25 215.68-2.25L215.68-2.25Q216.43-2.25 217.36-2.88 218.28-3.5 219.38-4.6L219.38-4.6 219.88-4.1Q219.18-3 218.03-1.88 216.88-0.75 215.36 0 213.83 0.75 211.93 0.75L211.93 0.75Q210.28 0.75 209.38-0.03 208.48-0.8 208.48-2.2L208.48-2.2Q208.48-3.25 208.73-4.38 208.98-5.5 209.33-6.7L209.33-6.7 211.38-15.15Q211.68-16.45 211.91-17.55 212.13-18.65 212.13-19.35L212.13-19.35Q212.13-21.1 210.53-21.1L210.53-21.1Q208.23-21.1 204.73-17.65L204.73-17.65Q204.68-17.55 204.66-17.43 204.63-17.3 204.63-17.15L204.63-17.15 203.23-10.65Q202.68-8 202.18-5.35 201.68-2.7 201.13 0L201.13 0 195.08 0.35 194.68 0 198.03-15.85Q198.23-16.85 198.38-17.73 198.53-18.6 198.53-19.25L198.53-19.25Q198.53-20.9 197.03-20.9L197.03-20.9Q194.48-20.9 191.03-17.65L191.03-17.65 189.48-10.65Q188.93-8 188.43-5.35 187.93-2.7 187.43 0ZM220.93 8.05L220.93 8.05 220.63 7.3Q222.83 6.4 224.45 4.93 226.08 3.45 227.03 1.1L227.03 1.1 225.98 0.55Q224.68-0.15 223.9-1.23 223.13-2.3 223.13-3.5L223.13-3.5Q223.13-5.1 224.23-6.3 225.33-7.5 227.33-7.5L227.33-7.5Q229.08-7.5 230.08-6.35 231.08-5.2 231.08-3.3L231.08-3.3Q231.08-0.95 229.83 1.38 228.58 3.7 226.3 5.48 224.03 7.25 220.93 8.05ZM244.77 12L244.77 12Q242.67 12 240.97 11.05 239.27 10.1 239.27 8.35L239.27 8.35Q239.27 7.05 240.12 6.35 240.97 5.65 242.12 5.65L242.12 5.65Q243.27 5.65 244.25 6.25 245.22 6.85 245.97 8.35L245.97 8.35 246.47 9.6Q246.77 10.15 247.17 10.23 247.57 10.3 247.92 9.7L247.92 9.7Q248.17 9.25 248.37 8.68 248.57 8.1 248.87 7.25L248.87 7.25Q249.57 5.55 250.1 3.13 250.62 0.7 251.07-2.25L251.07-2.25Q251.87-7.15 252.62-12.3 253.37-17.45 254.17-23.15L254.17-23.15 250.12-23.15 250.22-23.6 252.17-23.8Q253.37-23.95 253.97-24.6 254.57-25.25 254.92-26.5L254.92-26.5Q256.27-30.85 259.27-33.2 262.27-35.55 266.67-35.55L266.67-35.55Q269.17-35.55 270.72-34.48 272.27-33.4 272.27-31.75L272.27-31.75Q272.27-30.4 271.42-29.6 270.57-28.8 269.37-28.8L269.37-28.8Q267.02-28.8 265.47-31.95L265.47-31.95 265.27-32.75Q264.82-33.8 264.25-33.77 263.67-33.75 263.27-33L263.27-33Q262.42-31.8 261.72-29.65 261.02-27.5 260.47-24.05L260.47-24.05 266.57-24.05 266.32-23 260.32-23.05Q259.52-17.75 258.75-12.43 257.97-7.1 257.07-2.2L257.07-2.2Q256.37 1.5 255.25 4.23 254.12 6.95 252.22 8.85L252.22 8.85Q250.67 10.4 248.75 11.2 246.82 12 244.77 12ZM272.12 0L266.12 0.35 265.62 0 269.42-18.3Q269.67-19.6 269.27-20.23 268.87-20.85 267.92-21.25L267.92-21.25 267.17-21.6 267.27-22.1 275.97-24.85 276.47-24.4 275.12-16.15Q276.17-18.55 277.57-20.5 278.97-22.45 280.52-23.63 282.07-24.8 283.62-24.8L283.62-24.8Q285.17-24.8 286.12-23.98 287.07-23.15 287.07-21.8L287.07-21.8Q287.07-20.4 286.25-19.5 285.42-18.6 284.02-18.6L284.02-18.6Q282.92-18.6 281.92-19.18 280.92-19.75 279.97-20.85L279.97-20.85Q278.22-19.55 276.97-17.48 275.72-15.4 274.67-12.95L274.67-12.95 274.17-10.65Q273.62-8 273.12-5.35 272.62-2.7 272.12 0L272.12 0ZM294.72 0.75L294.72 0.75Q290.97 0.75 288.62-1.7 286.27-4.15 286.27-8.65L286.27-8.65Q286.27-11.85 287.37-14.75 288.47-17.65 290.44-19.93 292.42-22.2 295.02-23.5 297.62-24.8 300.67-24.8L300.67-24.8Q303.82-24.8 305.49-23.38 307.17-21.95 307.17-19.6L307.17-19.6Q307.17-17.65 305.34-15.75 303.52-13.85 300.22-12.33 296.92-10.8 292.47-10L292.47-10Q292.52-6.55 293.97-4.95 295.42-3.35 297.97-3.35L297.97-3.35Q300.12-3.35 301.92-4.53 303.72-5.7 304.97-7.3L304.97-7.3 305.47-6.95Q304.47-5 302.89-3.25 301.32-1.5 299.27-0.38 297.22 0.75 294.72 0.75ZM300.32-23.45L300.32-23.45Q299.17-23.45 297.84-22.45 296.52-21.45 295.34-19.73 294.17-18 293.39-15.78 292.62-13.55 292.47-11.05L292.47-11.05Q297.97-12.55 300.29-15 302.62-17.45 302.62-20.55L302.62-20.55Q302.62-22.05 301.97-22.75 301.32-23.45 300.32-23.45ZM314.52 0.75L314.52 0.75Q311.37 0.75 309.42-0.5 307.47-1.75 307.47-4.05L307.47-4.05Q307.47-5.25 308.32-6.15 309.17-7.05 310.52-7.05L310.52-7.05Q313.02-7.05 313.62-4L313.62-4 313.92-2.6Q314.17-1.55 314.54-0.9 314.92-0.25 316.02-0.25L316.02-0.25Q317.27-0.25 318.22-1.3 319.17-2.35 319.17-4.2L319.17-4.2Q319.17-5.6 318.29-6.9 317.42-8.2 315.37-9.75L315.37-9.75Q313.32-11.35 312.07-13.08 310.82-14.8 310.82-17.2L310.82-17.2Q310.82-19.3 311.89-21.03 312.97-22.75 315.02-23.78 317.07-24.8 319.87-24.8L319.87-24.8Q323.12-24.8 324.99-23.5 326.87-22.2 326.87-20.15L326.87-20.15Q326.87-19.05 326.22-18.32 325.57-17.6 324.27-17.6L324.27-17.6Q321.87-17.6 321.02-20.5L321.02-20.5 320.52-21.9Q320.27-22.9 319.92-23.3 319.57-23.7 318.82-23.7L318.82-23.7Q318.02-23.7 317.17-22.83 316.32-21.95 316.32-20.05L316.32-20.05Q316.32-18.25 317.39-16.78 318.47-15.3 320.62-13.7L320.62-13.7Q322.82-12.05 323.84-10.5 324.87-8.95 324.87-6.75L324.87-6.75Q324.87-4.7 323.67-3 322.47-1.3 320.17-0.28 317.87 0.75 314.52 0.75ZM333.31 0L327.16 0.3 326.86 0 331.41-21.8Q331.81-23.7 332.11-25.23 332.41-26.75 332.76-28.65L332.76-28.65Q333.16-30.8 331.11-31.5L331.11-31.5 330.31-31.75 330.41-32.25 339.96-35.05 340.31-34.7 336.91-18.75Q339.41-21.35 342.24-23.08 345.06-24.8 347.46-24.8L347.46-24.8Q349.06-24.8 350.09-23.83 351.11-22.85 351.11-20.8L351.11-20.8Q351.11-19.75 350.91-18.63 350.71-17.5 350.41-16.3L350.41-16.3 347.91-6.1Q347.71-5.15 347.51-4.48 347.31-3.8 347.31-3.4L347.31-3.4Q347.31-2.35 348.21-2.35L348.21-2.35Q349.51-2.35 351.86-4.55L351.86-4.55 352.31-4.1Q351.11-2.25 349.06-0.75 347.01 0.75 344.41 0.75L344.41 0.75Q342.76 0.75 341.86-0.03 340.96-0.8 340.96-2.2L340.96-2.2Q340.96-3.25 341.21-4.38 341.46-5.5 341.81-6.7L341.81-6.7 344.06-15.5Q344.41-16.85 344.69-17.98 344.96-19.1 344.96-19.9L344.96-19.9Q344.96-21.65 343.31-21.65L343.31-21.65Q340.86-21.65 336.86-17.65L336.86-17.65 335.36-10.7Q334.71-7.65 334.24-5.18 333.76-2.7 333.31 0L333.31 0ZM371.01 0.75L371.01 0.75Q369.46 0.75 368.43-0.08 367.41-0.9 367.41-2.5L367.41-2.5Q367.41-3.5 367.61-4.67 367.81-5.85 368.06-7.2L368.06-7.2 371.51-23 367.36-23 367.51-23.6 369.31-23.8Q370.71-23.95 371.76-24.5 372.81-25.05 373.76-26.05L373.76-26.05 378.56-30.9 379.31-30.9 377.91-24.05 383.36-24.05 383.11-23 377.66-23 374.21-6.35Q374.01-5.4 373.91-4.73 373.81-4.05 373.81-3.6L373.81-3.6Q373.81-3.1 374.11-2.8 374.41-2.5 374.76-2.5L374.76-2.5Q375.46-2.5 376.26-3.08 377.06-3.65 378.26-4.8L378.26-4.8 378.86-4.3Q377.61-2.45 375.61-0.85 373.61 0.75 371.01 0.75ZM392.41 0.75L392.41 0.75Q389.81 0.75 387.66-0.28 385.51-1.3 384.26-3.38 383.01-5.45 383.01-8.65L383.01-8.65Q383.01-11.85 384.08-14.75 385.16-17.65 387.11-19.93 389.06-22.2 391.66-23.5 394.26-24.8 397.31-24.8L397.31-24.8Q399.96-24.8 402.03-23.78 404.11-22.75 405.33-20.7 406.56-18.65 406.56-15.45L406.56-15.45Q406.56-12.3 405.48-9.38 404.41-6.45 402.48-4.17 400.56-1.9 397.98-0.58 395.41 0.75 392.41 0.75ZM393.01-0.25L393.01-0.25Q394.56-0.25 395.83-1.68 397.11-3.1 398.06-5.48 399.01-7.85 399.51-10.73 400.01-13.6 400.01-16.45L400.01-16.45Q400.01-20.6 399.16-22.2 398.31-23.8 396.96-23.8L396.96-23.8Q395.36-23.8 394.01-22.4 392.66-21 391.66-18.65 390.66-16.3 390.11-13.45 389.56-10.6 389.56-7.75L389.56-7.75Q389.56-3.5 390.56-1.88 391.56-0.25 393.01-0.25ZM425 0.75L425 0.75Q423.45 0.75 422.43-0.08 421.4-0.9 421.4-2.5L421.4-2.5Q421.4-3.5 421.6-4.67 421.8-5.85 422.05-7.2L422.05-7.2 425.5-23 421.35-23 421.5-23.6 423.3-23.8Q424.7-23.95 425.75-24.5 426.8-25.05 427.75-26.05L427.75-26.05 432.55-30.9 433.3-30.9 431.9-24.05 437.35-24.05 437.1-23 431.65-23 428.2-6.35Q428-5.4 427.9-4.73 427.8-4.05 427.8-3.6L427.8-3.6Q427.8-3.1 428.1-2.8 428.4-2.5 428.75-2.5L428.75-2.5Q429.45-2.5 430.25-3.08 431.05-3.65 432.25-4.8L432.25-4.8 432.85-4.3Q431.6-2.45 429.6-0.85 427.6 0.75 425 0.75ZM442.1 0.75L442.1 0.75Q440.7 0.75 439.45 0.1 438.2-0.55 437.42-2.05 436.65-3.55 436.65-6L436.65-6Q436.65-8.65 437.7-11.33 438.75-14 440.5-16.43 442.25-18.85 444.4-20.73 446.55-22.6 448.85-23.7 451.15-24.8 453.2-24.8L453.2-24.8Q454.2-24.8 455.07-24.43 455.95-24.05 456.75-23.4L456.75-23.4 460.8-24.95 461.2-24.7 456.85-5.55Q456.5-4.15 456.5-3.25L456.5-3.25Q456.5-2.2 457.45-2.2L457.45-2.2Q458.15-2.2 459.07-2.85 460-3.5 461.2-4.6L461.2-4.6 461.6-4.2Q460.85-3 459.72-1.88 458.6-0.75 457.22 0 455.85 0.75 454.3 0.75L454.3 0.75Q452.6 0.75 451.55-0.28 450.5-1.3 450.5-3.45L450.5-3.45Q450.5-4.15 450.55-4.8L450.55-4.8Q448.55-2.55 446.32-0.9 444.1 0.75 442.1 0.75ZM442.55-8.25L442.55-8.25Q442.55-5.6 443.42-4.42 444.3-3.25 445.75-3.25L445.75-3.25Q446.95-3.25 448.15-4 449.35-4.75 450.75-6.15L450.75-6.15Q450.85-6.75 451-7.4L451-7.4 454.15-21.8Q453.5-22.6 452.6-22.9 451.7-23.2 451-23.2L451-23.2Q448.85-23.2 446.5-20.65L446.5-20.65Q444.65-18.6 443.6-15.25 442.55-11.9 442.55-8.25ZM470.5 0.75L470.5 0.75Q468.05 0.75 466.52-0.58 465-1.9 465-4.6L465-4.6Q465-6.4 465.42-8.6 465.85-10.8 466.3-13L466.3-13 469.35-28.4Q469.75-30.55 467.8-31.2L467.8-31.2 466.9-31.55 466.95-32.05 476.75-34.85 477.05-34.5 473.7-19.15Q475.75-21.7 478.27-23.25 480.8-24.8 483-24.8L483-24.8Q485.2-24.8 486.62-23.25 488.05-21.7 488.05-18.05L488.05-18.05Q488.05-15.25 487.05-12.53 486.05-9.8 484.3-7.4 482.55-5 480.32-3.18 478.1-1.35 475.57-0.3 473.05 0.75 470.5 0.75ZM470.9-3.8L470.9-3.8Q470.9-2.55 471.4-1.73 471.9-0.9 473-0.9L473-0.9Q475.7-0.9 478.1-4L478.1-4Q479.1-5.3 479.92-7.3 480.75-9.3 481.22-11.55 481.7-13.8 481.7-15.85L481.7-15.85Q481.7-18.55 480.95-19.9 480.2-21.25 478.9-21.25L478.9-21.25Q477.7-21.25 476.37-20.3 475.05-19.35 473.55-17.7L473.55-17.7 472.2-11.5Q471.6-8.65 471.25-6.73 470.9-4.8 470.9-3.8ZM493.34 0.75L493.34 0.75Q491.69 0.75 490.72-0.1 489.74-0.95 489.74-2.55L489.74-2.55Q489.74-3.45 489.94-4.73 490.14-6 490.54-8L490.54-8 493.39-21.8Q493.79-23.7 494.07-25.25 494.34-26.8 494.69-28.75L494.69-28.75Q495.04-30.75 493.09-31.45L493.09-31.45 492.24-31.75 492.34-32.25 502.14-35.05 502.44-34.7 496.29-5.7Q496.14-4.95 496.04-4.38 495.94-3.8 495.94-3.4L495.94-3.4Q495.94-2.3 496.89-2.3L496.89-2.3Q498.14-2.3 500.54-4.55L500.54-4.55 501.04-4.15Q499.79-2.3 497.89-0.78 495.99 0.75 493.34 0.75ZM511.89 0.75L511.89 0.75Q508.14 0.75 505.79-1.7 503.44-4.15 503.44-8.65L503.44-8.65Q503.44-11.85 504.54-14.75 505.64-17.65 507.62-19.93 509.59-22.2 512.19-23.5 514.79-24.8 517.84-24.8L517.84-24.8Q520.99-24.8 522.67-23.38 524.34-21.95 524.34-19.6L524.34-19.6Q524.34-17.65 522.52-15.75 520.69-13.85 517.39-12.33 514.09-10.8 509.64-10L509.64-10Q509.69-6.55 511.14-4.95 512.59-3.35 515.14-3.35L515.14-3.35Q517.29-3.35 519.09-4.53 520.89-5.7 522.14-7.3L522.14-7.3 522.64-6.95Q521.64-5 520.07-3.25 518.49-1.5 516.44-0.38 514.39 0.75 511.89 0.75ZM517.49-23.45L517.49-23.45Q516.34-23.45 515.02-22.45 513.69-21.45 512.52-19.73 511.34-18 510.57-15.78 509.79-13.55 509.64-11.05L509.64-11.05Q515.14-12.55 517.47-15 519.79-17.45 519.79-20.55L519.79-20.55Q519.79-22.05 519.14-22.75 518.49-23.45 517.49-23.45Z" opacity="1" transform="matrix(1,0,0,1,0,0)" fill="#ffffff" class="slogan-text-1" data-fill-palette-color="secondary" id="text-1"></path></svg></g></svg></g></svg></g></svg></g><g transform="matrix(1,0,0,1,423.11922519027416,0)"><svg viewBox="0 0 148.41236528556075 112.516117733811" height="112.516117733811" width="148.41236528556075"><g><svg xmlns="http://www.w3.org/2000/svg" xml:space="preserve" viewBox="5 15.884 90.00019474651128 68.232" x="0" y="0" height="112.516117733811" width="148.41236528556075" class="icon-icon-0" data-fill-palette-color="accent" id="icon-0"><path d="M27.001 28.8c1.13-0.749 1.706-1.574 2.214-2.3 0.674-0.964 1.256-1.798 3.106-2.383l1.98-0.626-1.999-0.561c-0.03-0.007-0.695-0.19-1.732-0.19-1.874 0-5.269 0.606-8.301 4.363-0.175-1.819-0.751-4.494-2.57-5.789l-1.029-0.726c-1.937-1.357-2.547-1.828-2.541-2.718l0.014-1.986-1.14 1.625c-0.028 0.042-2.739 4.035 1.883 8.339 0.299 0.537 0.843 1.736 0.917 2.806q-0.455-0.289-1.155-0.746c-0.303-0.201-0.604-0.473-0.946-0.779-1.188-1.064-2.813-2.519-6.216-3.112-0.54-0.103-2.091-0.483-2.65-0.877L5 21.85l0.913 2.048c0.065 0.148 1.667 3.649 6.355 5.812 3.537 1.628 3.613 3.624 3.362 4.644-1.028 0.726-1.834 1.608-2.389 2.664-1.946 3.708-0.174 8.022-0.097 8.21L25.98 72.699l0.724 1.553 4.267 9.148 1.18-0.254 0.673-42.189c-0.012-0.084-1.101-7.817-8.212-8.717a1.07 1.07 0 0 1-0.096-0.645c0.116-0.825 0.998-1.816 2.485-2.795m4.588 12.224l-0.067 3.5-0.021 1.395-4.477 0.619a0.619 0.619 0 0 0 0.172 1.226l4.285-0.593-0.026 1.854-0.209 13.131-4.397 0.607a0.618 0.618 0 0 0 0.085 1.232l0.085-0.004 4.207-0.584-0.269 17.029-3.271-7.006 1.758-0.242a0.62 0.62 0 0 0 0.528-0.701c-0.046-0.336-0.341-0.566-0.699-0.529l-2.138 0.297-7.775-16.648 4.218-0.584a0.62 0.62 0 0 0-0.172-1.228l-4.596 0.635-4.524-9.688c-0.016-0.041-1.623-3.952 0.054-7.148 1.021-1.944 3.063-3.247 6.08-3.879a13.3 13.3 0 0 1 2.813-0.326c7.26-0.001 8.319 7.41 8.356 7.635m-8.308-9.535c-0.018 0.153 0.045 0.446 0.092 0.672-0.049 0-0.09-0.01-0.141-0.01-0.966 0-2.001 0.118-3.072 0.351q-1.815 0.384-3.219 1.076c-0.018-1.438-0.763-3.431-4.153-4.994-2.344-1.08-3.846-2.539-4.725-3.636 0.516 0.144 0.978 0.243 1.209 0.285v0.003a0.04 0.04 0 0 0 0.018 0.004c3.041 0.534 4.452 1.796 5.586 2.812 0.374 0.336 0.727 0.652 1.091 0.892 1.356 0.889 2.035 1.301 2.035 1.301l0.694 0.42 0.222-0.78c0.569-2.003-0.943-4.624-1.007-4.737l-0.117-0.142c-2.367-2.172-2.548-4.16-2.304-5.414 0.515 0.645 1.351 1.229 2.47 2.012l1.019 0.719c2.297 1.636 2.126 6.534 2.123 6.582 0 0 0.167 0.835 0.305 0.887 0.171 0.064 0.969-0.732 0.969-0.732 2.563-3.998 5.438-4.833 7.393-5.036-0.716 0.548-1.146 1.166-1.569 1.771-0.487 0.697-0.948 1.357-1.879 1.973-1.876 1.232-2.898 2.486-3.04 3.721M94.479 38.627c-1.271-2.541-5.004-4.974-11.303-3.507-0.543 0.122-13.234 3-17.128 8.203-0.466 0.229-1.969 0.996-3.593 2.146-1.234 0.869-2.089 1.633-2.718 2.297 0.275-1.891 1.08-4.728 3.259-8.286 0.58 0.302 1.548 0.642 2.747 0.447a5 5 0 0 0 1.128-0.33c2.454-1.049 2.778-1.283 3.153-2.276 0.046-0.126 0.101-0.272 0.183-0.449 0.23-0.508 0.517-0.633 0.966-0.776a3 3 0 0 1 0.431-0.091c0.826-0.133 2.108-0.214 2.065-0.214l0.223-0.016c0.238-0.036 0.686-0.178 1.024-0.678 0.479-0.71 0.536-1.835 0.172-3.438-0.058-0.254-0.099-0.597 0.029-0.786 0.327-0.483 2.229-0.251 3.738 0.023 1.009 0.183 1.882 0.34 2.503 0.239h0.001c0.762-0.139 1.009-0.623 1.088-0.898 0.34-1.188-1.11-2.92-1.964-3.812 1.163 0.063 3.153 0.419 4.37 0.682l0.238 0.051 0.209-0.124c0.088-0.052 0.859-0.539 0.925-1.479 0.053-0.799-0.425-1.61-1.429-2.414-0.177-0.14-4.33-3.362-8.881-2.627-1.744 0.279-3.312 1.108-4.675 2.483-0.336 0.368-8.172 9.007-9.035 15.4-0.543 0.799-3.22 4.976-3.731 9.475-0.529-0.832-1.05-1.752-1.217-2.577-0.198-1.005-0.078-1.208 0.249-1.756 0.304-0.509 0.74-1.246 1.081-2.819l0.227-1.41c0.563-6.446-5.347-16.465-5.608-16.906-4.139-6.897-14.578-6.185-15.05-6.148-0.893 0.111-1.931 0.346-2.039 1.184-0.136 1.06 1.563 1.771 1.757 1.848 0.285 0.113 0.725 0.267 1.237 0.444 1.008 0.349 3.521 1.221 4.228 1.787-0.639 0.366-3.368 2.021-3.31 3.523 0.011 0.288 0.136 0.819 0.841 1.137 0.424 0.187 1.062 0.318 1.798 0.471 1.295 0.267 3.251 0.669 3.65 1.497 0.05 0.101 0.199 0.407-0.134 1.072-0.864 1.727-1.074 2.856-0.661 3.551 0.23 0.388 0.611 0.534 0.805 0.534 0.005 0.001 0.138 0.038 0.488 0.256 0.116 0.071 0.352 0.188 0.648 0.328 1.425 0.686 2.21 1.164 2.324 1.391 0.043 0.229 0.049 0.416 0.055 0.585 0.042 1.057 0.288 1.614 2.606 2.904 2.4 1.341 3.746 1.968 4.517 2.262 0.405 1.285-1.516 1.941-0.922 4.51 0.297 1.29 1.14 2.639 1.849 3.714l0.012 0.021c-1.674-0.26-5.214-0.67-8.829-0.218-4.35 0.543-7.386 2.155-9.032 4.793-0.096 0.16-2.271 4.016 4.187 10.514 3.448 3.477 4.602 5.811 4.552 6.676l-1.729 8.867c-0.604 2.748 0.256 3.857 0.356 3.975l0.385 0.234 0.17-0.02 0.262-0.037 0.158-0.205c0.173-0.223 0.142-0.445 0.104-0.727-0.068-0.486-0.205-1.496 0.226-2.428 0.078-0.168 3.652-8.131 3.65-8.131 0.148-0.275 0.605-1.121 4.53-1.613a44 44 0 0 1 3.504-0.275 28 28 0 0 0 2.063-0.174c7.252-0.908 8.104-4.578 8.14-4.748C72.637 54.67 60.006 49.863 59.644 49.73c0.684-1.07 1.823-2.042 3.527-3.249a28 28 0 0 1 3.18-1.916c0.78 0.679 2.912 2.21 7.176 3.233 2.782 0.669 3.351 0.156 3.878-0.374 0.119-0.119 0.251-0.256 0.44-0.394 0.399-0.301 0.713-0.315 1.218-0.217 0.416 0.079 1.69 0.637 2.395 0.968l0.382 0.053c0.837-0.104 1.601-1.347 2.272-3.693 0.099-0.341 0.311-0.921 0.626-0.961 0.461-0.057 1.292 0.595 1.96 1.118 0.607 0.478 1.18 0.929 1.733 1.114 0.658 0.223 1.245 0.025 1.575-0.504 0.657-1.052 0.176-3.336-0.267-4.725 0.731-0.038 2.383 0.557 3.26 0.947 0.101 0.047 0.617 0.286 1.1 0.227a0.99 0.99 0 0 0 0.771-0.512c0.257-0.48 0.137-1.166-0.391-2.218M72.141 23.852c1.156-1.167 2.493-1.877 3.974-2.116 4.006-0.646 7.878 2.348 7.91 2.373 0.867 0.693 0.978 1.145 0.968 1.354a0.65 0.65 0 0 1-0.171 0.373c-1.016-0.212-4.065-0.805-5.221-0.618-0.575 0.091-0.776 0.387-0.848 0.616q-0.151 0.51 0.382 1.001c1.405 1.282 2.243 2.72 1.993 3.086-0.378 0.06-1.229-0.094-2.052-0.242-1.194-0.216-2.551-0.463-3.565-0.298-0.654 0.105-1.131 0.373-1.419 0.8-0.303 0.447-0.372 1.037-0.21 1.755 0.381 1.674 0.133 2.286 0.009 2.47-0.077 0.115-0.161 0.146-0.229 0.151-0.074 0.002-2.226 0.151-2.87 0.361-0.6 0.192-1.274 0.481-1.71 1.442-0.095 0.203-0.159 0.376-0.216 0.524-0.194 0.519-0.23 0.612-2.482 1.575-1.232 0.527-2.429 0.147-2.915-0.131 0.979-5.995 8.609-14.41 8.672-14.476M53.053 37.685c-1.939-1.078-1.949-1.326-1.971-1.869a5 5 0 0 0-0.076-0.765c-0.157-0.849-1.454-1.534-3.005-2.28a8 8 0 0 1-0.532-0.264c-0.46-0.287-0.738-0.389-0.897-0.421-0.034-0.161-0.063-0.749 0.721-2.313 0.402-0.802 0.449-1.532 0.143-2.166-0.667-1.376-2.801-1.818-4.515-2.168-0.64-0.132-1.241-0.259-1.65-0.442-0.036-0.36 1.122-1.554 2.792-2.465 0.613-0.334 0.673-0.788 0.652-1.029-0.084-1.004-1.671-1.719-5.197-2.94-0.49-0.171-0.909-0.317-1.181-0.425-0.252-0.1-0.62-0.316-0.835-0.492 0.15-0.05 0.393-0.11 0.779-0.16 0.101-0.007 10.121-0.681 13.864 5.555 0.063 0.106 6.365 10.79 5.363 16.739l-0.022 0.124c-0.574-0.209-1.827-0.762-4.433-2.219M69.389 65.51c-0.01 0.031-0.993 3.572-9.044 3.932a45 45 0 0 0-3.604 0.287c-4.018 0.502-5.018 1.42-5.487 2.293 0 0-1.406 3.135-2.479 5.518l1.233-6.342c0.062-0.973-0.49-3.262-4.899-7.707-5.712-5.746-4.014-8.982-4.008-8.994 1.435-2.299 4.169-3.717 8.129-4.211 4.627-0.58 9.291 0.35 9.321 0.346l0.629 0.246c0.495 0.177 12.068 4.493 10.209 14.632m24.134-25.5c-0.277-0.123-2.754-1.205-4.01-1.048-0.517 0.065-0.774 0.318-0.899 0.516q-0.28 0.453-0.063 1.093c0.611 1.8 0.655 3.463 0.272 3.669-0.349-0.118-0.865-0.523-1.363-0.913-0.938-0.733-1.903-1.496-2.877-1.373-0.779 0.097-1.339 0.718-1.663 1.848-0.542 1.894-1.005 2.535-1.201 2.738-0.571-0.263-1.854-0.833-2.423-0.94-0.306-0.059-0.64-0.108-1.007-0.063-0.414 0.052-0.804 0.216-1.186 0.5-0.243 0.182-0.42 0.357-0.576 0.513-0.238 0.239-0.319 0.319-0.57 0.352-0.389 0.049-1.069-0.049-2.145-0.308-3.794-0.909-5.76-2.233-6.517-2.851 3.917-4.641 16.023-7.385 16.155-7.415 5.606-1.318 8.853 0.719 9.921 2.854 0.228 0.452 0.323 0.739 0.362 0.91a2 2 0 0 1-0.21-0.082" fill="#ffffff" data-fill-palette-color="accent"></path></svg></g></svg></g></svg></g><defs></defs></svg><rect width="395.52" height="77.86511826761138" fill="none" stroke="none" visibility="hidden"></rect></g></svg></g></svg>