<svg id="icon-0" xmlns="http://www.w3.org/2000/svg" viewBox="0 0 997.18 196.33"><defs><style>.cls-1{fill:#fff;}</style></defs><g id="tight-bounds"><path id="yte-0" className="cls-1" d="M736.43,41.19h0c2.13,0,3.86,4.46,3.86,10V174c0,5.51-1.73,10-3.86,10h0c-2.13,0-3.86-4.47-3.86-10V51.16C732.57,45.65,734.3,41.19,736.43,41.19Z" transform="translate(-22.29 -14.41)"/><g id="textblocktransform"><g id="text-0"><path className="cls-1" d="M22.29,42.48H73.91v9.23H33.67V81H68.06v9.23H33.67v36H22.29Zm108,45.89v37.87h-4.63a5.6,5.6,0,0,1-2.46-.46,2.58,2.58,0,0,1-1.21-2h0l-1.17-5.49q-2.34,2.1-4.56,3.76a25.18,25.18,0,0,1-4.67,2.81,24.41,24.41,0,0,1-5.24,1.73,30.81,30.81,0,0,1-6.17.58h0a21.21,21.21,0,0,1-6.46-1,14.9,14.9,0,0,1-5.23-2.9A13.79,13.79,0,0,1,85,118.44a17,17,0,0,1-1.31-7h0a13.08,13.08,0,0,1,1.91-6.74,17.19,17.19,0,0,1,6.25-5.77,40.7,40.7,0,0,1,11.24-4.12,85.27,85.27,0,0,1,17-1.84h0V88.37q0-6.9-3-10.43t-8.74-3.55h0a18.21,18.21,0,0,0-6.38,1,24.43,24.43,0,0,0-4.52,2.15c-1.26.8-2.35,1.52-3.27,2.18a4.74,4.74,0,0,1-2.71,1h0a3.1,3.1,0,0,1-1.85-.57,4.15,4.15,0,0,1-1.26-1.38h0l-1.87-3.32A33.69,33.69,0,0,1,97.1,68.31,32.55,32.55,0,0,1,109.65,66h0a22.48,22.48,0,0,1,8.84,1.64A18,18,0,0,1,125,72.17a19.14,19.14,0,0,1,4,7.08,29.17,29.17,0,0,1,1.36,9.12Zm-27,31.49h0a21.89,21.89,0,0,0,5-.54,19.41,19.41,0,0,0,4.28-1.59,23.1,23.1,0,0,0,3.88-2.47,35.8,35.8,0,0,0,3.58-3.35h0V99.59a85.62,85.62,0,0,0-12.21,1.15,33.46,33.46,0,0,0-8.18,2.36,11.42,11.42,0,0,0-4.6,3.44A7.42,7.42,0,0,0,93.64,111h0a9.8,9.8,0,0,0,.77,4,7.7,7.7,0,0,0,2,2.78,8,8,0,0,0,3,1.57A14,14,0,0,0,103.3,119.86Zm53.18,6.38h-10.4V67h6a3.27,3.27,0,0,1,2.34.66,3.91,3.91,0,0,1,.86,2.22h0l.71,9.24a27,27,0,0,1,7.5-9.68A16.58,16.58,0,0,1,174,66h0a16.49,16.49,0,0,1,4.44.56,16.16,16.16,0,0,1,3.69,1.55h0l-1.35,7.78a1.76,1.76,0,0,1-1.83,1.45h0a9.44,9.44,0,0,1-2.5-.54,15.67,15.67,0,0,0-4.72-.56h0a13.42,13.42,0,0,0-9.09,3.16,23.68,23.68,0,0,0-6.11,9.16h0Zm47.09,0h-10.4V67h6.19a2.66,2.66,0,0,1,2.81,2.18h0l.77,6.08a30.27,30.27,0,0,1,7.34-6.62,17.23,17.23,0,0,1,9.42-2.57h0a14,14,0,0,1,9.75,3.34,18.81,18.81,0,0,1,5.33,9h0a18.77,18.77,0,0,1,13.14-11.64,23.69,23.69,0,0,1,5.75-.7h0a21.7,21.7,0,0,1,8.32,1.5,16.54,16.54,0,0,1,6.2,4.34A19.4,19.4,0,0,1,272.07,79a30.83,30.83,0,0,1,1.36,9.53h0v37.71H263V88.53q0-6.94-3-10.54t-8.83-3.6h0a13,13,0,0,0-4.87.91A11.76,11.76,0,0,0,242.22,78a12.57,12.57,0,0,0-2.79,4.42,17,17,0,0,0-1,6.14h0v37.71H228V88.53q0-7.12-2.85-10.63t-8.37-3.51h0a13.16,13.16,0,0,0-7.16,2.08,24.15,24.15,0,0,0-6.05,5.63h0Zm146.24-17.3h0a2.38,2.38,0,0,1,1.7.75h0l4.42,4.86a35.5,35.5,0,0,1-12.46,9.29q-7.34,3.34-17.67,3.34h0a41.57,41.57,0,0,1-16.44-3.13,35.67,35.67,0,0,1-12.55-8.77,39.45,39.45,0,0,1-8.09-13.54,50.62,50.62,0,0,1-2.86-17.34h0A47.75,47.75,0,0,1,288.93,67a40.1,40.1,0,0,1,8.62-13.56,38.94,38.94,0,0,1,13.31-8.79A45.29,45.29,0,0,1,328,41.54h0a38.34,38.34,0,0,1,27.82,10.64h0l-3.67,5.21a4.09,4.09,0,0,1-.94,1,2.62,2.62,0,0,1-1.52.38h0a3,3,0,0,1-1.61-.54c-.58-.38-1.25-.84-2-1.38s-1.7-1.13-2.74-1.76a23.92,23.92,0,0,0-3.74-1.75,31.87,31.87,0,0,0-5-1.38,35.82,35.82,0,0,0-6.61-.54h0a32,32,0,0,0-12.3,2.3A27.91,27.91,0,0,0,306,60.24a30.49,30.49,0,0,0-6.29,10.41,40,40,0,0,0-2.24,13.75h0a40.5,40.5,0,0,0,2.24,13.95,30.94,30.94,0,0,0,6.15,10.38,25.92,25.92,0,0,0,9.19,6.46,29.54,29.54,0,0,0,11.48,2.22h0a48.62,48.62,0,0,0,6.71-.42,27.93,27.93,0,0,0,5.51-1.38,23.91,23.91,0,0,0,4.75-2.36,38.74,38.74,0,0,0,4.42-3.44h0A2.92,2.92,0,0,1,349.81,108.94Zm43.37-42.85h0a30.28,30.28,0,0,1,11.71,2.17,24.58,24.58,0,0,1,8.88,6.13A27.3,27.3,0,0,1,419.38,84a38,38,0,0,1,2,12.58h0a38,38,0,0,1-2,12.62,27.3,27.3,0,0,1-5.61,9.59,24.58,24.58,0,0,1-8.88,6.13,31,31,0,0,1-11.71,2.12h0a31.08,31.08,0,0,1-11.74-2.12,25,25,0,0,1-8.91-6.13,27.4,27.4,0,0,1-5.66-9.59,37.73,37.73,0,0,1-2-12.62h0a37.78,37.78,0,0,1,2-12.58,27.4,27.4,0,0,1,5.66-9.63,25,25,0,0,1,8.91-6.13A30.32,30.32,0,0,1,393.18,66.09Zm0,52.84h0q8.76,0,13.09-5.87t4.32-16.39h0q0-10.59-4.32-16.48t-13.09-5.92h0a18.21,18.21,0,0,0-7.72,1.52,14.47,14.47,0,0,0-5.47,4.4,19,19,0,0,0-3.27,7,37.89,37.89,0,0,0-1.08,9.45h0a37.31,37.31,0,0,0,1.08,9.4,18.86,18.86,0,0,0,3.27,7,14.34,14.34,0,0,0,5.47,4.35A18.21,18.21,0,0,0,393.18,118.93Zm51.43,7.31h-10.4V67h6.19a2.66,2.66,0,0,1,2.81,2.18h0l.81,6.43a33.29,33.29,0,0,1,8.61-6.9,22.41,22.41,0,0,1,11-2.64h0a21.43,21.43,0,0,1,8.56,1.61,16.75,16.75,0,0,1,6.2,4.56,20.2,20.2,0,0,1,3.76,7.11,30.68,30.68,0,0,1,1.29,9.16h0v37.71H473.06V88.53q0-6.7-3.06-10.42t-9.38-3.72h0A17.46,17.46,0,0,0,452,76.61a28.25,28.25,0,0,0-7.39,6h0Zm65,0h-10.4V67h6.19a2.66,2.66,0,0,1,2.81,2.18h0l.82,6.43a33,33,0,0,1,8.62-6.9,22.36,22.36,0,0,1,11-2.64h0a21.42,21.42,0,0,1,8.58,1.61,16.91,16.91,0,0,1,6.2,4.56,20,20,0,0,1,3.76,7.11,30.68,30.68,0,0,1,1.29,9.16h0v37.71h-10.4V88.53q0-6.7-3.07-10.42c-2-2.48-5.19-3.72-9.39-3.72h0A17.45,17.45,0,0,0,517,76.61a28.16,28.16,0,0,0-7.41,6h0Zm78-60.15h0a26.27,26.27,0,0,1,9.82,1.8A22,22,0,0,1,605.2,73a23.37,23.37,0,0,1,5.12,8.3,32,32,0,0,1,1.85,11.25h0a6.59,6.59,0,0,1-.54,3.27,2.15,2.15,0,0,1-2,.82H570.25a32.68,32.68,0,0,0,1.52,9.77,19.85,19.85,0,0,0,3.86,6.92,15.53,15.53,0,0,0,5.84,4.14,20,20,0,0,0,7.6,1.38h0a22.12,22.12,0,0,0,6.76-.91,32.48,32.48,0,0,0,4.88-2c1.36-.7,2.5-1.34,3.42-1.94a4.58,4.58,0,0,1,2.36-.91h0a2.29,2.29,0,0,1,2,1h0l2.93,3.81a19.66,19.66,0,0,1-4.61,4.07,27.6,27.6,0,0,1-5.77,2.83,38.48,38.48,0,0,1-12.82,2.22h0A30,30,0,0,1,576.89,125a25,25,0,0,1-8.95-6.08,27.78,27.78,0,0,1-5.87-9.91A40.06,40.06,0,0,1,560,95.43h0a34.37,34.37,0,0,1,1.9-11.57,27.25,27.25,0,0,1,5.47-9.31,25.08,25.08,0,0,1,8.72-6.19A28.4,28.4,0,0,1,587.62,66.09Zm.23,7.67h0q-7.54,0-11.87,4.35T570.6,90.17h32.22a20.71,20.71,0,0,0-1-6.62,14.61,14.61,0,0,0-2.92-5.21,13,13,0,0,0-4.7-3.39A16,16,0,0,0,587.85,73.76Zm80.71,0-2.76,3.75a4.56,4.56,0,0,1-.93,1,2.25,2.25,0,0,1-1.34.35h0a3.3,3.3,0,0,1-1.89-.72A24.83,24.83,0,0,0,659,76.56,20.3,20.3,0,0,0,655.21,75a18.49,18.49,0,0,0-5.54-.72h0A18,18,0,0,0,642,75.77a14.8,14.8,0,0,0-5.58,4.46,20.23,20.23,0,0,0-3.39,7.09,34.52,34.52,0,0,0-1.15,9.28h0a33.58,33.58,0,0,0,1.24,9.56,20.56,20.56,0,0,0,3.44,7A14.85,14.85,0,0,0,642,117.5a16.55,16.55,0,0,0,7.15,1.5h0a18.39,18.39,0,0,0,6.25-.91,19.47,19.47,0,0,0,4.09-2,30.77,30.77,0,0,0,2.69-2,3.26,3.26,0,0,1,2.1-.91h0a2.21,2.21,0,0,1,2,1h0l2.92,3.81a22.62,22.62,0,0,1-9.63,6.93,34.33,34.33,0,0,1-12.23,2.19h0A25.79,25.79,0,0,1,637,125a23.47,23.47,0,0,1-8.28-5.92,28.38,28.38,0,0,1-5.51-9.56,38.66,38.66,0,0,1-2-12.93h0a38.81,38.81,0,0,1,1.84-12.2,27.42,27.42,0,0,1,5.38-9.68,24.05,24.05,0,0,1,8.72-6.34,29.34,29.34,0,0,1,11.92-2.29h0a28,28,0,0,1,11,2,26.48,26.48,0,0,1,8.49,5.68ZM698,127.18h0q-7,0-10.78-3.93T683.41,112h0V75.75h-7.14a2.35,2.35,0,0,1-1.59-.57,2.19,2.19,0,0,1-.63-1.73h0V69.32l9.71-1.24,2.38-18.29a2.16,2.16,0,0,1,.77-1.42,2.35,2.35,0,0,1,1.64-.56h5.26V68.19h17v7.56h-17v35.53c0,2.5.6,4.34,1.8,5.54a6.31,6.31,0,0,0,4.68,1.83h0a7.94,7.94,0,0,0,2.82-.45,11.27,11.27,0,0,0,2.08-1c.6-.35,1.1-.67,1.5-.95a1.9,1.9,0,0,1,1.08-.45h0a1.84,1.84,0,0,1,1.47,1h0l3,5a19.53,19.53,0,0,1-6.5,4A22.1,22.1,0,0,1,698,127.18Z" transform="translate(-22.29 -14.41)"/></g><path id="text-1" className="cls-1" d="M311.38,183.6h0a5.85,5.85,0,0,1-2.89-.72,2.27,2.27,0,0,1-1.3-2.06h0a1.85,1.85,0,0,1,.65-1.52,2.29,2.29,0,0,1,1.52-.53h0a3,3,0,0,1,1.62.45,3.82,3.82,0,0,1,1.32,1.6h0l.38,1a.83.83,0,0,0,.53.48c.2,0,.39-.1.57-.4h0a4.69,4.69,0,0,0,.34-.78c.11-.29.23-.65.38-1.09h0a18.41,18.41,0,0,0,.94-3.13c.26-1.24.51-2.6.74-4.1h0q.61-3.74,1.18-7.65c.38-2.61.77-5.37,1.18-8.26h-3.08l.07-.34,1.49-.16a2.14,2.14,0,0,0,1.37-.61,3.59,3.59,0,0,0,.72-1.44h0a10.06,10.06,0,0,1,3.31-5.1,8.83,8.83,0,0,1,5.64-1.79h0a5.34,5.34,0,0,1,3.08.81,2.45,2.45,0,0,1,1.18,2.08h0a2.12,2.12,0,0,1-.65,1.64,2.22,2.22,0,0,1-1.56.61h0q-1.78,0-3-2.4h0l-.15-.61q-.35-.79-.78-.78a.92.92,0,0,0-.74.59h0a9.54,9.54,0,0,0-1.18,2.55,28.35,28.35,0,0,0-1,4.26H328l-.19.8-4.57,0q-.6,4-1.19,8.09c-.4,2.71-.83,5.3-1.28,7.79h0a25,25,0,0,1-1.4,4.9,10.34,10.34,0,0,1-2.3,3.51h0a7.88,7.88,0,0,1-2.64,1.79A7.77,7.77,0,0,1,311.38,183.6Zm20.83-9.14-4.57.27-.38-.27,2.89-13.93a2.06,2.06,0,0,0-.11-1.47,2.32,2.32,0,0,0-1-.78h0l-.57-.26.07-.38,6.63-2.1.38.35-1,6.28a17.89,17.89,0,0,1,1.87-3.31,11.28,11.28,0,0,1,2.24-2.39,4,4,0,0,1,2.36-.89h0a2.82,2.82,0,0,1,1.91.63,2.09,2.09,0,0,1,.72,1.66h0a2.49,2.49,0,0,1-.63,1.75,2.2,2.2,0,0,1-1.69.68h0a3.09,3.09,0,0,1-1.6-.44,5.87,5.87,0,0,1-1.49-1.27h0a8.77,8.77,0,0,0-2.28,2.57,27,27,0,0,0-1.75,3.44h0l-.38,1.76c-.28,1.34-.55,2.69-.8,4s-.51,2.7-.76,4.07ZM350,175h0a8.27,8.27,0,0,1-3.61-.79,5.88,5.88,0,0,1-2.6-2.36,7.7,7.7,0,0,1-.95-4h0a13.2,13.2,0,0,1,.82-4.65,12.66,12.66,0,0,1,2.31-3.94,11.07,11.07,0,0,1,3.46-2.72,9.47,9.47,0,0,1,4.3-1h0a8,8,0,0,1,3.6.78,6,6,0,0,1,2.51,2.34,7.74,7.74,0,0,1,.94,4h0a13.16,13.16,0,0,1-.83,4.62,12.9,12.9,0,0,1-2.28,4,11,11,0,0,1-3.43,2.73A9,9,0,0,1,350,175Zm.45-.77h0a2.87,2.87,0,0,0,2.16-1.08,9.69,9.69,0,0,0,1.69-2.9,19.58,19.58,0,0,0,1.1-4,24.59,24.59,0,0,0,.38-4.35h0a10.31,10.31,0,0,0-.64-4.38,1.91,1.91,0,0,0-1.67-1.22h0a3.13,3.13,0,0,0-2.26,1.07,9.47,9.47,0,0,0-1.78,2.85,19.73,19.73,0,0,0-1.18,4,22.87,22.87,0,0,0-.42,4.34h0a9.3,9.3,0,0,0,.76,4.47A2.19,2.19,0,0,0,350.47,174.27Zm16.79.19h0l-4.64.27-.31-.27,2.93-14a1.63,1.63,0,0,0-1.06-2.09h0l-.69-.34.08-.38,7.08-2.1.34.35-.8,4.11a19.26,19.26,0,0,1,4-3.22,7.46,7.46,0,0,1,3.77-1.2h0a2.87,2.87,0,0,1,2,.74,3,3,0,0,1,.8,2.31h0a5.17,5.17,0,0,1,0,.68c0,.23-.05.47-.08.73h0a18.53,18.53,0,0,1,3.87-3.26,7.2,7.2,0,0,1,3.75-1.2h0a2.81,2.81,0,0,1,2,.74,3.07,3.07,0,0,1,.78,2.31h0a8.69,8.69,0,0,1-.16,1.65c-.1.57-.22,1.16-.38,1.77h0l-2,8.15c-.1.41-.19.75-.26,1a2.69,2.69,0,0,0-.12.72h0c0,.53.22.8.65.8h0a2.35,2.35,0,0,0,1.28-.48,10.26,10.26,0,0,0,1.54-1.31h0l.38.38a9.94,9.94,0,0,1-1.41,1.69,7.58,7.58,0,0,1-2,1.43,5.75,5.75,0,0,1-2.61.58h0a2.88,2.88,0,0,1-1.95-.6,2.07,2.07,0,0,1-.68-1.65h0a7.49,7.49,0,0,1,.19-1.66c.13-.57.28-1.16.46-1.77h0l1.56-6.43c.15-.66.28-1.27.4-1.83a7.43,7.43,0,0,0,.17-1.37h0c0-.89-.41-1.33-1.22-1.33h0c-1.17,0-2.64.87-4.42,2.63h0a.75.75,0,0,0-.05.16,1.5,1.5,0,0,0,0,.22h0l-1.07,5c-.28,1.34-.54,2.69-.8,4s-.52,2.7-.8,4.07h0l-4.6.27-.31-.27,2.55-12.06q.15-.77.27-1.44a7.48,7.48,0,0,0,.11-1.15h0q0-1.26-1.14-1.26h0c-1.29,0-2.82.83-4.57,2.48h0l-1.18,5.33c-.28,1.34-.54,2.69-.8,4S367.52,173.09,367.26,174.46ZM399,183.6h0a5.85,5.85,0,0,1-2.89-.72,2.26,2.26,0,0,1-1.29-2.06h0a1.85,1.85,0,0,1,.64-1.52,2.3,2.3,0,0,1,1.53-.53h0a3,3,0,0,1,1.61.45,3.82,3.82,0,0,1,1.32,1.6h0l.38,1a.83.83,0,0,0,.53.48c.2,0,.39-.1.57-.4h0a4.69,4.69,0,0,0,.34-.78c.11-.29.23-.65.39-1.09h0a18.53,18.53,0,0,0,.92-3.13c.27-1.24.52-2.6.75-4.1h0q.62-3.74,1.18-7.65c.38-2.61.77-5.37,1.18-8.26h-3.08l.07-.34,1.49-.16a2.14,2.14,0,0,0,1.37-.61,3.59,3.59,0,0,0,.72-1.44h0a10.06,10.06,0,0,1,3.31-5.1,8.83,8.83,0,0,1,5.64-1.79h0a5.34,5.34,0,0,1,3.08.81,2.45,2.45,0,0,1,1.18,2.08h0a2.12,2.12,0,0,1-.65,1.64,2.22,2.22,0,0,1-1.56.61h0q-1.79,0-3-2.4h0l-.15-.61q-.34-.79-.78-.78a.92.92,0,0,0-.74.59h0a9.54,9.54,0,0,0-1.18,2.55,28.35,28.35,0,0,0-.95,4.26h4.64l-.19.8-4.57,0-1.2,8.09c-.39,2.71-.81,5.3-1.27,7.79h0a25.72,25.72,0,0,1-1.39,4.9,10.65,10.65,0,0,1-2.3,3.51h0A8,8,0,0,1,402,183,7.77,7.77,0,0,1,399,183.6ZM417.89,175h0a4.28,4.28,0,0,1-2-.5,3.64,3.64,0,0,1-1.55-1.64,6.59,6.59,0,0,1-.59-3h0a11.11,11.11,0,0,1,.8-4.06,18.09,18.09,0,0,1,2.14-3.89,19.33,19.33,0,0,1,3-3.27,15.23,15.23,0,0,1,3.38-2.26,7.72,7.72,0,0,1,3.32-.84h0a3.74,3.74,0,0,1,1.42.28,5.75,5.75,0,0,1,1.28.79h0l3.08-1.18.31.19-3.32,14.58a7.86,7.86,0,0,0-.26,1.75h0c0,.53.24.8.72.8h0a2.26,2.26,0,0,0,1.24-.5,16.35,16.35,0,0,0,1.62-1.33h0l.3.31a10,10,0,0,1-1.43,1.76,8,8,0,0,1-1.9,1.43,4.5,4.5,0,0,1-2.23.58h0a2.87,2.87,0,0,1-2.09-.79,3.24,3.24,0,0,1-.8-2.41h0c0-.36,0-.7,0-1h0a21.72,21.72,0,0,1-3.22,3A5.47,5.47,0,0,1,417.89,175Zm.35-6.86h0a5,5,0,0,0,.66,2.92,2.13,2.13,0,0,0,1.77.89h0a3.44,3.44,0,0,0,1.83-.57,11.53,11.53,0,0,0,2-1.64h0c0-.3.11-.62.19-.95h0l2.4-11a2.49,2.49,0,0,0-1.18-.84,4,4,0,0,0-1.22-.23h0a5,5,0,0,0-3.43,1.94h0a11,11,0,0,0-2.2,4.11A17.51,17.51,0,0,0,418.24,168.18Zm21.35,6.28-4.57.27-.38-.27,2.89-13.93a2.06,2.06,0,0,0-.11-1.47,2.32,2.32,0,0,0-1-.78h0l-.57-.26.07-.38,6.63-2.1.38.35-1,6.28a17.89,17.89,0,0,1,1.87-3.31,11.28,11.28,0,0,1,2.24-2.39,4,4,0,0,1,2.36-.89h0a2.82,2.82,0,0,1,1.91.63,2.09,2.09,0,0,1,.72,1.66h0a2.49,2.49,0,0,1-.63,1.75,2.2,2.2,0,0,1-1.69.68h0a3.09,3.09,0,0,1-1.6-.44,5.87,5.87,0,0,1-1.49-1.27h0a8.77,8.77,0,0,0-2.28,2.57,27,27,0,0,0-1.75,3.44h0l-.38,1.76c-.28,1.34-.55,2.69-.8,4s-.51,2.7-.76,4.07Zm16.21,0h0l-4.64.27-.3-.27,2.93-14a1.64,1.64,0,0,0-1.07-2.09h0L452,158l.07-.38,7.08-2.1.35.35-.8,4.11a19,19,0,0,1,3.95-3.22,7.49,7.49,0,0,1,3.77-1.2h0a2.86,2.86,0,0,1,2,.74,3,3,0,0,1,.8,2.31h0a5.17,5.17,0,0,1,0,.68c0,.23-.05.47-.07.73h0a18.49,18.49,0,0,1,3.86-3.26,7.23,7.23,0,0,1,3.75-1.2h0a2.81,2.81,0,0,1,2,.74,3.07,3.07,0,0,1,.78,2.31h0a9.55,9.55,0,0,1-.15,1.65c-.1.57-.23,1.16-.38,1.77h0l-2,8.15c-.1.41-.19.75-.27,1a2.63,2.63,0,0,0-.11.72h0c0,.53.21.8.64.8h0a2.35,2.35,0,0,0,1.28-.48,10.26,10.26,0,0,0,1.54-1.31h0l.38.38A9.08,9.08,0,0,1,479.1,173a7.58,7.58,0,0,1-2,1.43,5.75,5.75,0,0,1-2.61.58h0a2.83,2.83,0,0,1-1.94-.6,2,2,0,0,1-.69-1.65h0a8.13,8.13,0,0,1,.19-1.66c.13-.57.28-1.16.46-1.77h0l1.56-6.43c.15-.66.29-1.27.4-1.83a7.43,7.43,0,0,0,.17-1.37h0c0-.89-.41-1.33-1.22-1.33h0c-1.17,0-2.64.87-4.41,2.63h0a.44.44,0,0,0-.06.16,1.5,1.5,0,0,0,0,.22h0l-1.07,5c-.27,1.34-.54,2.69-.8,4s-.52,2.7-.79,4.07h0l-4.61.27-.31-.27,2.55-12.06q.17-.77.27-1.44a6.51,6.51,0,0,0,.12-1.15h0c0-.84-.39-1.26-1.15-1.26h0q-1.94,0-4.56,2.48h0l-1.18,5.33c-.28,1.34-.55,2.69-.8,4S456.06,173.09,455.8,174.46Zm25.51,6.13h0l-.23-.57a9.72,9.72,0,0,0,2.91-1.8,7.92,7.92,0,0,0,2-2.92h0l-.8-.42a4.58,4.58,0,0,1-1.59-1.35,2.92,2.92,0,0,1-.58-1.73h0a3.09,3.09,0,0,1,.83-2.13,3.05,3.05,0,0,1,2.36-.92h0a2.66,2.66,0,0,1,2.1.88A3.4,3.4,0,0,1,489,172h0a7.58,7.58,0,0,1-1,3.57,10.14,10.14,0,0,1-2.69,3.12A10.94,10.94,0,0,1,481.31,180.59Zm18.15,3h0a5.85,5.85,0,0,1-2.89-.72,2.27,2.27,0,0,1-1.3-2.06h0a1.85,1.85,0,0,1,.65-1.52,2.29,2.29,0,0,1,1.52-.53h0a3.1,3.1,0,0,1,1.63.45,3.88,3.88,0,0,1,1.31,1.6h0l.38,1a.83.83,0,0,0,.53.48c.2,0,.39-.1.57-.4h0a4.69,4.69,0,0,0,.34-.78c.11-.29.23-.65.38-1.09h0a18.41,18.41,0,0,0,.94-3.13c.26-1.24.51-2.6.74-4.1h0q.62-3.74,1.18-7.65c.38-2.61.77-5.37,1.18-8.26h-3.08l.07-.34,1.49-.16a2.14,2.14,0,0,0,1.37-.61,3.59,3.59,0,0,0,.72-1.44h0a10.06,10.06,0,0,1,3.31-5.1,8.83,8.83,0,0,1,5.64-1.79h0a5.34,5.34,0,0,1,3.08.81,2.45,2.45,0,0,1,1.18,2.08h0a2.12,2.12,0,0,1-.65,1.64,2.22,2.22,0,0,1-1.56.61h0q-1.79,0-3-2.4h0l-.15-.61q-.35-.79-.78-.78a.92.92,0,0,0-.74.59h0a9.54,9.54,0,0,0-1.18,2.55,28.35,28.35,0,0,0-.95,4.26h4.64l-.19.8-4.57,0q-.6,4-1.19,8.09c-.4,2.71-.83,5.3-1.28,7.79h0a25.72,25.72,0,0,1-1.39,4.9,10.65,10.65,0,0,1-2.3,3.51h0a8,8,0,0,1-2.65,1.79A7.77,7.77,0,0,1,499.46,183.6Zm20.83-9.14-4.57.27-.38-.27,2.89-13.93a2.06,2.06,0,0,0-.11-1.47,2.32,2.32,0,0,0-1-.78h0l-.57-.26.07-.38,6.63-2.1.38.35-1,6.28a17.89,17.89,0,0,1,1.87-3.31,11.28,11.28,0,0,1,2.24-2.39,4,4,0,0,1,2.36-.89h0a2.82,2.82,0,0,1,1.91.63,2.09,2.09,0,0,1,.72,1.66h0a2.53,2.53,0,0,1-.62,1.75,2.24,2.24,0,0,1-1.7.68h0a3.09,3.09,0,0,1-1.6-.44,5.87,5.87,0,0,1-1.49-1.27h0a8.77,8.77,0,0,0-2.28,2.57,28.34,28.34,0,0,0-1.75,3.44h0l-.38,1.76c-.28,1.34-.55,2.69-.8,4s-.51,2.7-.76,4.07Zm17.2.58h0a6.15,6.15,0,0,1-4.64-1.87,7.35,7.35,0,0,1-1.79-5.29h0a13,13,0,0,1,.84-4.65,13.14,13.14,0,0,1,2.34-3.94,11.26,11.26,0,0,1,3.48-2.72,9.5,9.5,0,0,1,4.3-1h0a5.5,5.5,0,0,1,3.67,1.08,3.59,3.59,0,0,1,1.28,2.88h0a4.24,4.24,0,0,1-1.39,2.93,12.66,12.66,0,0,1-3.9,2.61,24.61,24.61,0,0,1-5.9,1.77h0a5.83,5.83,0,0,0,1.14,3.85,3.91,3.91,0,0,0,3.05,1.21h0a5.46,5.46,0,0,0,3-.89,9.79,9.79,0,0,0,2.32-2.11h0l.38.26a13.37,13.37,0,0,1-2,2.82,10.42,10.42,0,0,1-2.76,2.19A7.11,7.11,0,0,1,537.49,175Zm4.27-18.43h0a3.2,3.2,0,0,0-1.89.76,9,9,0,0,0-1.9,2.07,13,13,0,0,0-1.49,3,13.6,13.6,0,0,0-.7,3.6h0q4.19-1.14,6-3a6,6,0,0,0,1.77-4.22h0a2.43,2.43,0,0,0-.5-1.68A1.64,1.64,0,0,0,541.76,156.61ZM552.57,175h0a7,7,0,0,1-3.88-1,3,3,0,0,1-1.49-2.7h0a2.27,2.27,0,0,1,.65-1.6,2.22,2.22,0,0,1,1.67-.68h0c1.27,0,2.06.77,2.36,2.32h0l.23,1.06a4.94,4.94,0,0,0,.48,1.3,1.17,1.17,0,0,0,1.12.49h0a2.19,2.19,0,0,0,1.68-.8,3.15,3.15,0,0,0,.72-2.2h0a3.61,3.61,0,0,0-.67-2.06,9.75,9.75,0,0,0-2.22-2.17h0a13.08,13.08,0,0,1-2.52-2.53,5.24,5.24,0,0,1-1-3.14h0a5.39,5.39,0,0,1,.82-2.92,5.81,5.81,0,0,1,2.38-2.09,8.16,8.16,0,0,1,3.69-.78h0a6.74,6.74,0,0,1,3.9,1,3,3,0,0,1,1.43,2.55h0a2,2,0,0,1-.49,1.4,1.93,1.93,0,0,1-1.49.54h0c-1.21,0-2-.73-2.47-2.2h0l-.38-1.07a2.71,2.71,0,0,0-.46-1.07,1.08,1.08,0,0,0-.84-.3h0a1.82,1.82,0,0,0-1.25.66,3,3,0,0,0-.65,2.12h0a4.11,4.11,0,0,0,.82,2.49,11.33,11.33,0,0,0,2.45,2.34h0a10.31,10.31,0,0,1,2.46,2.44,5.08,5.08,0,0,1,.78,2.86h0a4.81,4.81,0,0,1-.91,2.85,6.32,6.32,0,0,1-2.67,2.07A10.55,10.55,0,0,1,552.57,175Zm14.31-.58-4.69.23-.22-.23,3.46-16.59c.2-1,.38-1.84.53-2.62s.32-1.64.5-2.6h0a1.73,1.73,0,0,0-1.26-2.17h0l-.61-.19.08-.38,7.27-2.13.27.26-2.59,12.15a20.41,20.41,0,0,1,4.06-3.3,7.75,7.75,0,0,1,4-1.31h0a2.81,2.81,0,0,1,2,.74,3.07,3.07,0,0,1,.78,2.31h0a9.55,9.55,0,0,1-.15,1.65c-.1.57-.23,1.16-.38,1.77h0L578,169.82q-.15.72-.3,1.23a3.18,3.18,0,0,0-.15.83h0c0,.53.22.8.68.8h0c.66,0,1.59-.56,2.78-1.68h0l.34.34a9.75,9.75,0,0,1-2.47,2.55,5.86,5.86,0,0,1-3.54,1.15h0a2.83,2.83,0,0,1-1.94-.6,2,2,0,0,1-.69-1.65h0a7.49,7.49,0,0,1,.19-1.66c.13-.57.28-1.16.46-1.77h0l1.71-6.7q.27-1,.48-1.89a6.16,6.16,0,0,0,.21-1.46h0c0-.89-.42-1.33-1.26-1.33h0q-1.86,0-4.91,3.05h0l-1.14,5.29c-.33,1.55-.62,3-.86,4.2s-.47,2.57-.7,3.94Zm28.7.58h0a3,3,0,0,1-2-.64,2.21,2.21,0,0,1-.78-1.84h0a9.91,9.91,0,0,1,.15-1.65c.1-.6.22-1.24.35-1.93h0L596,157H592.8l.12-.45,1.37-.16a5,5,0,0,0,1.86-.53,5.88,5.88,0,0,0,1.53-1.18h0l3.65-3.69h.57l-1.07,5.21H605l-.19.8h-4.15L598,169.63c-.1.48-.18.89-.23,1.23a6.51,6.51,0,0,0-.08.86h0a.82.82,0,0,0,.23.61.7.7,0,0,0,.5.23h0a2,2,0,0,0,1.14-.44,16,16,0,0,0,1.52-1.31h0l.46.38a12,12,0,0,1-2.48,2.63A5.44,5.44,0,0,1,595.58,175Zm16.3,0h0a8.31,8.31,0,0,1-3.62-.79,5.91,5.91,0,0,1-2.59-2.36,7.7,7.7,0,0,1-.95-4h0a13.42,13.42,0,0,1,.81-4.65,13.06,13.06,0,0,1,2.31-3.94,11.07,11.07,0,0,1,3.46-2.72,9.51,9.51,0,0,1,4.31-1h0a8,8,0,0,1,3.59.78,5.9,5.9,0,0,1,2.51,2.34,7.64,7.64,0,0,1,.94,4h0a13.38,13.38,0,0,1-.82,4.62,13.13,13.13,0,0,1-2.29,4,11,11,0,0,1-3.42,2.73A9.06,9.06,0,0,1,611.88,175Zm.45-.77h0a2.86,2.86,0,0,0,2.15-1.08,9.91,9.91,0,0,0,1.7-2.9,19.58,19.58,0,0,0,1.1-4,25.57,25.57,0,0,0,.38-4.35h0a10.12,10.12,0,0,0-.65-4.38,1.91,1.91,0,0,0-1.67-1.22h0a3.11,3.11,0,0,0-2.25,1.07,9.49,9.49,0,0,0-1.79,2.85,20.41,20.41,0,0,0-1.18,4,22.85,22.85,0,0,0-.41,4.34h0a9.18,9.18,0,0,0,.76,4.47A2.18,2.18,0,0,0,612.33,174.27Zm24.36.77h0a3,3,0,0,1-2-.64,2.21,2.21,0,0,1-.78-1.84h0a9.91,9.91,0,0,1,.15-1.65c.1-.6.22-1.24.34-1.93h0l2.63-12h-3.16l.11-.45,1.37-.16a5,5,0,0,0,1.87-.53,5.84,5.84,0,0,0,1.52-1.18h0l3.66-3.69H643l-1.07,5.21h4.15l-.19.8h-4.15l-2.62,12.68c-.11.48-.18.89-.23,1.23a6.51,6.51,0,0,0-.08.86h0a.82.82,0,0,0,.23.61.7.7,0,0,0,.49.23h0a2,2,0,0,0,1.15-.44,16,16,0,0,0,1.52-1.31h0l.46.38a12,12,0,0,1-2.48,2.63A5.44,5.44,0,0,1,636.69,175Zm13,0h0a4.34,4.34,0,0,1-2-.5,3.62,3.62,0,0,1-1.54-1.64,6.46,6.46,0,0,1-.59-3h0a11.11,11.11,0,0,1,.8-4.06,17.63,17.63,0,0,1,2.13-3.89,20.21,20.21,0,0,1,3-3.27,15.06,15.06,0,0,1,3.39-2.26,7.68,7.68,0,0,1,3.31-.84h0a3.71,3.71,0,0,1,1.42.28,5.53,5.53,0,0,1,1.28.79h0l3.09-1.18.3.19-3.31,14.58a7.4,7.4,0,0,0-.27,1.75h0c0,.53.24.8.73.8h0a2.27,2.27,0,0,0,1.23-.5,16.35,16.35,0,0,0,1.62-1.33h0l.31.31a9.59,9.59,0,0,1-1.44,1.76,7.77,7.77,0,0,1-1.9,1.43A4.46,4.46,0,0,1,659,175h0a2.91,2.91,0,0,1-2.1-.79,3.24,3.24,0,0,1-.8-2.41h0c0-.36,0-.7,0-1h0a21.24,21.24,0,0,1-3.22,3A5.44,5.44,0,0,1,649.71,175Zm.34-6.86h0a5,5,0,0,0,.66,2.92,2.13,2.13,0,0,0,1.78.89h0a3.44,3.44,0,0,0,1.83-.57,12.34,12.34,0,0,0,2-1.64h0c.05-.3.11-.62.19-.95h0l2.39-11a2.49,2.49,0,0,0-1.18-.84,3.93,3.93,0,0,0-1.21-.23h0a4.92,4.92,0,0,0-3.43,1.94h0a10.86,10.86,0,0,0-2.21,4.11A17.82,17.82,0,0,0,650.05,168.18ZM671.33,175h0a4.44,4.44,0,0,1-3-1,3.84,3.84,0,0,1-1.16-3.06h0a16.56,16.56,0,0,1,.32-3c.22-1.12.45-2.24.67-3.35h0l2.33-11.73a1.67,1.67,0,0,0-1.18-2.13h0l-.69-.27,0-.38,7.46-2.13.23.27-2.55,11.68a13.77,13.77,0,0,1,3.48-3.12,7,7,0,0,1,3.6-1.18h0a3.6,3.6,0,0,1,2.76,1.18,5.82,5.82,0,0,1,1.09,4h0a12,12,0,0,1-.77,4.2,15.53,15.53,0,0,1-2.09,3.91,17.14,17.14,0,0,1-3,3.21,14.44,14.44,0,0,1-3.62,2.2A10,10,0,0,1,671.33,175Zm.31-3.47h0a2.94,2.94,0,0,0,.38,1.58,1.31,1.31,0,0,0,1.22.63h0q2.06,0,3.88-2.36h0a11,11,0,0,0,1.39-2.51,17.67,17.67,0,0,0,1-3.24,15.25,15.25,0,0,0,.37-3.27h0a6.58,6.58,0,0,0-.57-3.09,1.74,1.74,0,0,0-1.56-1h0a3.4,3.4,0,0,0-1.93.73,14.39,14.39,0,0,0-2.15,2h0l-1,4.72c-.31,1.45-.55,2.66-.73,3.63A14.32,14.32,0,0,0,671.64,171.57ZM688.72,175h0a2.92,2.92,0,0,1-2-.65,2.33,2.33,0,0,1-.75-1.87h0a11.27,11.27,0,0,1,.15-1.66c.11-.64.26-1.47.46-2.49h0l2.17-10.5c.2-1,.38-1.84.52-2.63s.29-1.68.47-2.67h0a1.66,1.66,0,0,0-1.22-2h0l-.64-.23.07-.38,7.46-2.13.23.26L691,170.12c-.08.39-.14.72-.19,1a4.57,4.57,0,0,0-.08.75h0c0,.55.24.83.73.83h0c.63,0,1.56-.57,2.78-1.71h0l.38.3a11.84,11.84,0,0,1-2.4,2.57A5.35,5.35,0,0,1,688.72,175Zm14.13,0h0a6.18,6.18,0,0,1-4.65-1.87,7.35,7.35,0,0,1-1.79-5.29h0a13,13,0,0,1,3.19-8.59,11.26,11.26,0,0,1,3.48-2.72,9.47,9.47,0,0,1,4.3-1h0a5.52,5.52,0,0,1,3.67,1.08,3.62,3.62,0,0,1,1.28,2.88h0a4.28,4.28,0,0,1-1.39,2.93,12.85,12.85,0,0,1-3.91,2.61,24.61,24.61,0,0,1-5.9,1.77h0a5.78,5.78,0,0,0,1.15,3.85,3.89,3.89,0,0,0,3,1.21h0a5.44,5.44,0,0,0,3-.89,9.6,9.6,0,0,0,2.32-2.11h0l.38.26a13.69,13.69,0,0,1-1.95,2.82,10.63,10.63,0,0,1-2.77,2.19A7.07,7.07,0,0,1,702.85,175Zm4.26-18.43h0a3.17,3.17,0,0,0-1.88.76,8.53,8.53,0,0,0-1.9,2.07,12.62,12.62,0,0,0-1.49,3,13.61,13.61,0,0,0-.71,3.6h0a12.81,12.81,0,0,0,6-3,6,6,0,0,0,1.76-4.22h0a2.43,2.43,0,0,0-.49-1.68A1.66,1.66,0,0,0,707.11,156.61Z" transform="translate(-22.29 -14.41)"/></g><path className="cls-1" d="M823.81,51.57A22.53,22.53,0,0,0,830.18,45c1.94-2.77,3.61-5.17,8.94-6.85l5.7-1.8-5.76-1.62a20.56,20.56,0,0,0-5-.54c-5.39,0-15.16,1.74-23.88,12.55-.51-5.23-2.17-12.93-7.4-16.66l-3-2.09c-5.57-3.9-7.33-5.26-7.31-7.82l0-5.71-3.28,4.67c-.08.12-7.88,11.61,5.42,24a21.86,21.86,0,0,1,2.63,8.07c-.87-.55-2-1.27-3.32-2.14a25.73,25.73,0,0,1-2.72-2.25,32.46,32.46,0,0,0-17.89-8.95c-1.55-.3-6-1.39-7.62-2.52l-5.28-3.72,2.62,5.9c.19.42,4.8,10.5,18.29,16.72,10.18,4.68,10.39,10.43,9.67,13.36a21.76,21.76,0,0,0-6.87,7.67c-5.6,10.67-.5,23.08-.28,23.62l36.93,79,2.09,4.47,12.27,26.32,3.4-.73,1.94-121.39c0-.24-3.17-22.49-23.63-25.08a3.05,3.05,0,0,1-.28-1.86c.33-2.37,2.87-5.22,7.15-8M837,86.74l-.19,10.08-.06,4-12.88,1.78a1.78,1.78,0,1,0,.49,3.53h0l12.33-1.71-.07,5.34L836,147.55l-12.65,1.74a1.78,1.78,0,0,0,.25,3.55h.24L836,151.15l-.78,49L825.78,180l5.06-.7a1.78,1.78,0,0,0,1.52-2h0a1.78,1.78,0,0,0-2-1.52l-6.15.86L801.82,128.7,814,127a1.78,1.78,0,0,0-.49-3.53l-13.23,1.83-13-27.88c-.05-.12-4.67-11.37.15-20.56,2.94-5.6,8.81-9.35,17.49-11.17a38.11,38.11,0,0,1,8.1-.93c20.89,0,23.94,21.32,24,22m-23.9-27.43a8.37,8.37,0,0,0,.26,1.93c-.14,0-.26,0-.4,0a41.86,41.86,0,0,0-8.84,1,39.55,39.55,0,0,0-9.27,3.1c-.05-4.14-2.19-9.87-12-14.37a37.43,37.43,0,0,1-13.59-10.46c1.48.41,2.81.7,3.48.82h.05a29,29,0,0,1,16.07,8.09A27.76,27.76,0,0,0,792.06,52c3.9,2.55,5.86,3.74,5.86,3.74l2,1.21.64-2.25c1.64-5.76-2.71-13.3-2.89-13.63l-.34-.4c-6.81-6.25-7.33-12-6.63-15.58,1.48,1.85,3.89,3.53,7.11,5.79l2.93,2.07c6.61,4.7,6.12,18.8,6.11,18.93s.48,2.41.87,2.56,2.79-2.11,2.79-2.11c7.38-11.5,15.65-13.91,21.28-14.49a20.76,20.76,0,0,0-4.52,5.1,19,19,0,0,1-5.41,5.67c-5.39,3.55-8.33,7.16-8.74,10.71M1018,79.85c-3.66-7.31-14.4-14.31-32.52-10.09-1.57.35-38.08,8.63-49.29,23.6a81.09,81.09,0,0,0-10.34,6.17,51.27,51.27,0,0,0-7.82,6.61c.79-5.44,3.11-13.6,9.38-23.84a12.65,12.65,0,0,0,7.9,1.29,14.61,14.61,0,0,0,3.25-1c7.06-3,8-3.69,9.07-6.55.13-.36.29-.78.53-1.29a3.75,3.75,0,0,1,2.78-2.24,10.1,10.1,0,0,1,1.24-.26c2.38-.38,6.06-.61,5.94-.61l.64,0a4.34,4.34,0,0,0,2.95-2c1.38-2,1.54-5.28.49-9.89a3.27,3.27,0,0,1,.09-2.26c.94-1.39,6.41-.73,10.75.06,2.91.53,5.42,1,7.2.69h0a3.67,3.67,0,0,0,3.13-2.58c1-3.42-3.2-8.41-5.65-11a98.45,98.45,0,0,1,12.57,2l.69.15.6-.36a5.69,5.69,0,0,0,2.66-4.26c.15-2.29-1.22-4.63-4.11-6.94-.51-.4-12.46-9.67-25.56-7.56a24,24,0,0,0-13.45,7.14c-1,1.06-23.51,25.92-26,44.32-1.56,2.29-9.26,14.31-10.73,27.26a24.2,24.2,0,0,1-3.5-7.42c-.57-2.89-.23-3.47.71-5a23.65,23.65,0,0,0,3.11-8.11l.66-4.06C917,63.27,900,34.44,899.21,33.17c-11.91-19.85-41.94-17.8-43.3-17.69-2.57.32-5.56,1-5.87,3.41-.39,3.05,4.5,5.09,5.06,5.31.82.33,2.08.77,3.56,1.28,2.9,1,10.13,3.51,12.16,5.14-1.84,1.06-9.69,5.82-9.52,10.14A3.67,3.67,0,0,0,863.72,44a28.9,28.9,0,0,0,5.17,1.36c3.73.76,9.35,1.92,10.5,4.3.15.29.57,1.17-.38,3.09-2.49,5-3.09,8.22-1.91,10.21a3,3,0,0,0,2.32,1.54,6.06,6.06,0,0,1,1.41.74c.33.2,1,.54,1.86.94,4.1,2,6.36,3.35,6.69,4a10.1,10.1,0,0,1,.15,1.69c.13,3,.83,4.64,7.5,8.35a107.9,107.9,0,0,0,13,6.51c1.17,3.7-4.36,5.59-2.65,13,.85,3.71,3.28,7.59,5.32,10.68l0,.07a96.15,96.15,0,0,0-25.4-.63c-12.52,1.56-21.25,6.2-26,13.79-.28.46-6.53,11.55,12,30.25,9.92,10,13.24,16.72,13.09,19.21l-5,25.51c-1.74,7.91.74,11.1,1,11.44l1.11.67.49,0,.76-.11.45-.59a2.48,2.48,0,0,0,.3-2.09,12.46,12.46,0,0,1,.65-7c.22-.48,10.51-23.39,10.5-23.39.43-.79,1.74-3.23,13-4.64,3.34-.4,6.71-.67,10.08-.8q3-.13,5.93-.5c20.87-2.61,23.32-13.17,23.43-13.66,5.85-31.9-30.49-45.73-31.53-46.12,2-3.07,5.24-5.87,10.14-9.34A82.6,82.6,0,0,1,937,96.93c2.25,2,8.38,6.36,20.65,9.31,8,1.92,9.64.44,11.16-1.08a9.37,9.37,0,0,1,1.27-1.13,3.77,3.77,0,0,1,3.5-.63,50,50,0,0,1,6.89,2.79l1.1.15c2.41-.3,4.61-3.88,6.54-10.63.28-1,.89-2.65,1.8-2.76,1.33-.17,3.72,1.71,5.64,3.21a18.54,18.54,0,0,0,5,3.21,3.65,3.65,0,0,0,4.53-1.45c1.89-3,.5-9.6-.77-13.6,2.1-.1,6.86,1.61,9.38,2.73a6.46,6.46,0,0,0,3.16.65,2.83,2.83,0,0,0,2.22-1.47c.74-1.38.4-3.36-1.12-6.38M953.69,37.33a20.53,20.53,0,0,1,11.44-6.08c11.52-1.86,22.67,6.75,22.76,6.82,2.49,2,2.81,3.3,2.78,3.9a1.8,1.8,0,0,1-.49,1.07c-2.92-.61-11.7-2.31-15-1.77A2.68,2.68,0,0,0,972.72,43a2.77,2.77,0,0,0,1.1,2.88c4,3.69,6.45,7.82,5.73,8.88a25.77,25.77,0,0,1-5.9-.7c-3.44-.62-7.34-1.33-10.26-.86a5.78,5.78,0,0,0-4.08,2.31,6.31,6.31,0,0,0-.61,5.05c1.1,4.81.39,6.57,0,7.1a.87.87,0,0,1-.66.44c-.21,0-6.4.43-8.26,1a7.21,7.21,0,0,0-4.92,4.14c-.27.59-.46,1.09-.62,1.51-.56,1.5-.66,1.76-7.14,4.53a9.9,9.9,0,0,1-8.39-.37c2.82-17.25,24.77-41.47,25-41.66M898.77,77.14c-5.58-3.1-5.61-3.82-5.67-5.38a14.77,14.77,0,0,0-.22-2.2c-.45-2.44-4.18-4.42-8.65-6.56-.51-.24-1-.49-1.53-.76A8.21,8.21,0,0,0,880.12,61c-.09-.47-.18-2.16,2.08-6.66,1.15-2.31,1.29-4.41.41-6.23-1.92-4-8.06-5.23-13-6.24a25.4,25.4,0,0,1-4.75-1.27c-.1-1,3.23-4.47,8-7.09a3,3,0,0,0,1.88-3c-.24-2.89-4.81-4.95-14.95-8.46-1.41-.5-2.62-.92-3.4-1.23a10.36,10.36,0,0,1-2.4-1.41,11.36,11.36,0,0,1,2.24-.46c.29,0,29.12-2,39.89,16,.18.31,18.31,31.05,15.43,48.17l-.06.35c-1.66-.6-5.26-2.19-12.76-6.38m47,80.06c0,.09-2.86,10.28-26,11.31-3.46.14-6.92.41-10.37.83-11.56,1.44-14.44,4.08-15.79,6.6,0,0-4,9-7.13,15.87L890,173.57c.18-2.8-1.41-9.39-14.1-22.18-16.43-16.53-11.55-25.84-11.53-25.88,4.13-6.61,12-10.69,23.39-12.12,13.31-1.66,26.73,1,26.82,1l1.81.71c1.42.51,34.72,12.93,29.38,42.1m69.44-73.37c-.8-.36-7.93-3.47-11.54-3a3.38,3.38,0,0,0-2.59,1.49,3.54,3.54,0,0,0-.18,3.14c1.76,5.18,1.89,10,.78,10.56a18,18,0,0,1-3.92-2.63c-2.7-2.11-5.47-4.3-8.28-4-2.24.28-3.85,2.07-4.78,5.32-1.56,5.45-2.89,7.29-3.46,7.88a44.51,44.51,0,0,0-7-2.71,9.1,9.1,0,0,0-2.9-.18,7.12,7.12,0,0,0-3.41,1.44,15.4,15.4,0,0,0-1.66,1.47c-.68.69-.91.92-1.64,1-1.12.14-3.07-.14-6.17-.89-10.91-2.61-16.57-6.42-18.75-8.2,11.27-13.36,46.1-21.25,46.48-21.34,16.13-3.79,25.48,2.07,28.55,8.21a11.71,11.71,0,0,1,1,2.62,4.36,4.36,0,0,1-.6-.23" transform="translate(-22.29 -14.41)"/></g></svg>